<svg width="512" height="512" viewBox="0 0 512 512" fill="none" xmlns="http://www.w3.org/2000/svg">
<g clip-path="url(#clip0_3_499)">
<path d="M165.632 204.032C177.989 226.086 194.542 245.508 214.357 261.206C236.373 301.398 192.768 344.832 208.299 392.534H204.8C195.374 392.534 187.733 400.175 187.733 409.6V435.968C163.118 440.129 145.092 461.436 145.067 486.4V494.934C145.067 504.359 152.708 512 162.133 512H349.867C359.292 512 366.933 504.359 366.933 494.934V486.4C366.908 461.436 348.882 440.129 324.267 435.968V409.6C324.267 400.175 316.626 392.534 307.2 392.534H303.701C319.147 345.088 275.712 301.227 297.643 261.206C317.458 245.508 334.011 226.086 346.368 204.032C389.803 200.875 424.277 186.027 448.768 159.488C490.155 115.286 486.4 55.8082 486.4 53.3335L485.547 41.4722C484.918 32.516 477.458 25.5781 468.48 25.6002H392.533C392.533 17.0668 393.899 11.2642 387.925 5.12016C384.65 1.77755 380.146 -0.0734773 375.467 0.000163098H136.533C127.108 0.000163098 119.467 7.64117 119.467 17.0668V25.6002H43.6053C34.6272 25.5781 27.1671 32.516 26.5387 41.4722L25.6 53.3335C25.6 55.8082 21.6747 115.286 62.8907 159.488C87.7227 186.027 122.197 200.875 165.632 204.032V204.032ZM137.045 137.984C112.875 130.095 94.61 110.113 88.9173 85.3335H125.184C127.894 103.141 131.857 120.735 137.045 137.984V137.984ZM349.867 486.4V494.934H162.133V486.4C162.133 467.549 177.415 452.267 196.267 452.267H315.733C334.585 452.267 349.867 467.549 349.867 486.4ZM307.2 435.2H204.8V409.6H307.2V435.2ZM226.56 392.534C208.64 353.451 249.515 310.699 234.411 264.534H277.589C262.571 310.528 303.189 353.536 285.44 392.534H226.56ZM386.816 85.3335H423.083C417.39 110.113 399.125 130.095 374.955 137.984C380.143 120.735 384.106 103.141 386.816 85.3335V85.3335ZM468.395 42.6668L469.333 54.5282C470.754 88.6773 459.061 122.077 436.651 147.883C415.301 169.782 386.816 183.314 356.352 186.027C360.922 176.749 364.995 167.236 368.555 157.525C407.779 149.93 437.59 117.842 442.283 78.1655C442.686 75.6769 441.969 73.1372 440.323 71.2277C438.677 69.3182 436.27 68.2343 433.749 68.2668H389.12C390.144 59.7335 390.827 51.2002 391.424 42.6668H468.395ZM375.467 17.0668C372.992 176.214 300.117 237.91 287.488 247.467H224.597C211.883 237.91 139.093 176.214 136.533 17.0668H375.467ZM42.6667 54.5282L43.6053 42.6668H120.405C121.003 51.2002 121.685 59.7335 122.709 68.2668H78.336C75.8151 68.2343 73.4089 69.3182 71.7627 71.2277C70.1166 73.1372 69.3991 75.6769 69.8027 78.1655C74.4952 117.842 104.306 149.93 143.531 157.525C147.09 167.236 151.164 176.749 155.733 186.027C125.27 183.314 96.7843 169.782 75.4347 147.883C52.9933 122.09 41.2693 88.6888 42.6667 54.5282V54.5282Z" fill="#D5B665"/>
<path d="M233.472 228.438C235.819 230.389 239.029 230.939 241.893 229.882C244.756 228.825 246.838 226.32 247.354 223.311C247.87 220.303 246.742 217.247 244.395 215.296C196.267 175.19 179.2 84.7362 179.2 83.7976C178.352 79.0847 173.843 75.9519 169.131 76.8002C164.418 77.6486 161.285 82.1568 162.133 86.8696C162.987 90.7949 180.48 184.32 233.472 228.438Z" fill="#D5B665"/>
<path d="M162.133 59.7337C166.846 59.7337 170.667 55.9132 170.667 51.2003C170.667 46.4875 166.846 42.667 162.133 42.667C157.421 42.667 153.6 46.4875 153.6 51.2003C153.6 55.9132 157.421 59.7337 162.133 59.7337Z" fill="#D5B665"/>
</g>
<defs>
<clipPath id="clip0_3_499">
<rect width="512" height="512" fill="white"/>
</clipPath>
</defs>
</svg>
