<svg width="512" height="512" viewBox="0 0 512 512" fill="none" xmlns="http://www.w3.org/2000/svg">
<path d="M189.399 296.63C187.529 298.49 186.469 301.069 186.469 303.7C186.469 306.33 187.529 308.91 189.399 310.769C191.259 312.629 193.839 313.7 196.469 313.7C199.099 313.7 201.679 312.63 203.539 310.769C205.398 308.91 206.469 306.33 206.469 303.7C206.469 301.069 205.399 298.49 203.539 296.63C201.679 294.77 199.099 293.7 196.469 293.7C193.839 293.7 191.26 294.77 189.399 296.63Z" fill="#D5B665"/>
<path d="M256.31 300.649C253.68 300.649 251.1 301.719 249.241 303.58C247.381 305.439 246.31 308.019 246.31 310.649C246.31 313.28 247.38 315.859 249.241 317.719C251.1 319.579 253.68 320.649 256.31 320.649C258.94 320.649 261.52 319.58 263.38 317.719C265.24 315.858 266.31 313.28 266.31 310.649C266.31 308.019 265.241 305.439 263.38 303.58C261.52 301.72 258.939 300.649 256.31 300.649Z" fill="#D5B665"/>
<path d="M216.22 354.24C216.22 356.88 217.28 359.45 219.15 361.309C221.01 363.179 223.581 364.24 226.22 364.24C228.85 364.24 231.42 363.179 233.29 361.309C235.149 359.45 236.22 356.879 236.22 354.24C236.22 351.609 235.15 349.03 233.29 347.17C231.43 345.31 228.85 344.24 226.22 344.24C223.58 344.24 221.01 345.309 219.15 347.17C217.279 349.03 216.22 351.609 216.22 354.24Z" fill="#D5B665"/>
<path d="M286.06 366.109C288.69 366.109 291.27 365.04 293.13 363.179C294.99 361.318 296.06 358.74 296.06 356.109C296.06 353.469 294.991 350.899 293.13 349.04C291.27 347.18 288.69 346.109 286.06 346.109C283.43 346.109 280.85 347.179 278.991 349.04C277.131 350.899 276.06 353.479 276.06 356.109C276.06 358.74 277.13 361.309 278.991 363.179C280.85 365.04 283.43 366.109 286.06 366.109Z" fill="#D5B665"/>
<path d="M323.22 314.5C325.09 312.64 326.15 310.06 326.15 307.43C326.15 304.8 325.09 302.22 323.22 300.36C321.36 298.501 318.79 297.43 316.15 297.43C313.52 297.43 310.94 298.5 309.081 300.36C307.221 302.22 306.15 304.8 306.15 307.43C306.15 310.06 307.22 312.64 309.081 314.5C310.94 316.359 313.52 317.43 316.15 317.43C318.78 317.43 321.359 316.359 323.22 314.5Z" fill="#D5B665"/>
<path d="M140.271 418.106C128.258 408.476 113.277 403.677 98.2649 404.145C102.169 389.168 100.601 373.002 93.3809 358.887C86.3399 345.121 74.5709 334.571 60.6089 328.862C70.1829 316.48 75.0809 300.793 73.8419 284.816C72.6839 269.888 66.2759 256.033 56.1669 245.504C70.1649 238.164 81.2219 225.772 86.6969 210.547C94.3829 189.173 90.0419 165.093 75.3669 147.705C73.0579 144.969 69.4599 143.675 65.9399 144.315C43.5519 148.375 24.8709 164.175 17.1839 185.55C10.9409 202.912 12.6339 222.059 21.3529 237.955C6.63791 251.125 -1.3531 270.603 0.192905 290.528C1.6449 309.254 11.3609 326.288 26.2799 337.19C18.4009 354.723 18.7379 375.175 27.6139 392.526C36.2479 409.406 51.9889 421.453 70.1719 425.661C70.1239 444.937 78.8179 463.521 94.0669 475.745C105.546 484.947 119.737 489.744 134.074 489.744C141.872 489.744 149.713 488.325 157.184 485.423C160.521 484.127 162.911 481.147 163.45 477.608C166.876 455.112 157.994 432.313 140.271 418.106V418.106ZM36.0049 192.317C40.5979 179.545 50.9139 169.669 63.6509 165.48C70.8039 176.822 72.4689 191.006 67.8769 203.778C63.2849 216.55 52.9679 226.425 40.2299 230.615C33.0759 219.273 31.4119 205.089 36.0049 192.317ZM34.3419 253.166C45.5179 260.576 52.8539 272.83 53.9039 286.362C54.9529 299.893 49.5939 313.132 39.6949 322.177C28.5189 314.767 21.1839 302.513 20.1339 288.98C19.0839 275.449 24.4419 262.211 34.3419 253.166V253.166ZM45.4219 383.418C39.2399 371.334 39.0859 357.054 44.7379 344.894C57.9049 347.427 69.3939 355.911 75.5749 367.995C81.7569 380.079 81.9099 394.36 76.2589 406.519C63.0909 403.984 51.6019 395.502 45.4219 383.418ZM106.577 460.139C95.9869 451.65 89.9939 438.686 90.1659 425.279C103.213 422.195 117.171 425.223 127.762 433.713C138.353 442.203 144.345 455.165 144.173 468.573C131.127 471.656 117.167 468.628 106.577 460.139V460.139Z" fill="#D5B665"/>
<path d="M490.646 237.954C499.366 222.058 501.059 202.911 494.815 185.549C487.128 164.174 468.447 148.374 446.059 144.314C442.542 143.675 438.942 144.968 436.632 147.704C421.957 165.092 417.616 189.172 425.302 210.546C430.777 225.771 441.834 238.163 455.832 245.503C445.723 256.033 439.315 269.888 438.157 284.815C436.918 300.793 441.816 316.48 451.39 328.861C437.428 334.57 425.659 345.12 418.618 358.886C411.398 373.002 409.83 389.167 413.735 404.145C398.723 403.677 383.741 408.477 371.729 418.106C354.006 432.313 345.125 455.112 348.55 477.606C349.089 481.145 351.479 484.126 354.816 485.421C362.289 488.323 370.128 489.742 377.926 489.742C392.262 489.742 406.454 484.944 417.933 475.743C433.181 463.519 441.876 444.935 441.828 425.659C460.011 421.451 475.752 409.404 484.385 392.524C493.261 375.173 493.599 354.721 485.72 337.188C500.638 326.286 510.355 309.252 511.807 290.526C513.352 270.603 505.361 251.125 490.646 237.954V237.954ZM444.123 203.778C439.53 191.006 441.195 176.821 448.349 165.48C461.086 169.669 471.403 179.544 475.995 192.317C480.587 205.09 478.924 219.273 471.77 230.615C459.032 226.426 448.716 216.55 444.123 203.778ZM405.423 460.139C394.832 468.629 380.874 471.659 367.827 468.573C367.655 455.165 373.647 442.202 384.238 433.713C394.83 425.224 408.789 422.196 421.834 425.279C422.006 438.687 416.013 451.649 405.423 460.139ZM466.578 383.418C460.398 395.502 448.909 403.984 435.741 406.519C430.09 394.36 430.243 380.079 436.425 367.995C442.606 355.911 454.095 347.428 467.262 344.894C472.914 357.054 472.76 371.334 466.578 383.418ZM491.866 288.98C490.816 302.513 483.481 314.767 472.305 322.177C462.406 313.131 457.047 299.893 458.096 286.362C459.146 272.83 466.482 260.576 477.658 253.166C487.558 262.211 492.916 275.449 491.866 288.98V288.98Z" fill="#D5B665"/>
<path d="M331.052 404.08H328.869C370.845 379.125 399.04 333.317 399.04 281.04C399.04 220.518 360.722 166.308 303.688 146.145C298.482 144.305 292.769 147.033 290.927 152.24C289.086 157.447 291.815 163.16 297.022 165.001C346.08 182.344 379.04 228.977 379.04 281.04C379.04 348.885 323.845 404.08 256 404.08C188.155 404.08 132.96 348.885 132.96 281.04C132.96 228.977 165.92 182.345 214.978 165.001C220.185 163.16 222.914 157.447 221.073 152.24C219.232 147.033 213.518 144.304 208.312 146.145C151.279 166.308 112.96 220.518 112.96 281.04C112.96 333.317 141.155 379.125 183.131 404.08H180.948C175.426 404.08 170.948 408.558 170.948 414.08C170.948 419.602 175.426 424.08 180.948 424.08H191.9C208.529 440.273 218.001 462.593 218.001 485.901V502C218.001 507.522 222.479 512 228.001 512C233.523 512 238.001 507.522 238.001 502V485.901C238.001 463.565 230.943 441.963 218.166 424.08H293.834C281.057 441.964 273.999 463.565 273.999 485.901V502C273.999 507.522 278.477 512 283.999 512C289.521 512 293.999 507.522 293.999 502V485.901C293.999 462.593 303.471 440.273 320.1 424.08H331.052C336.574 424.08 341.052 419.602 341.052 414.08C341.052 408.558 336.574 404.08 331.052 404.08V404.08Z" fill="#D5B665"/>
<path d="M256 108C261.522 108 266 103.523 266 98V10C266 4.477 261.522 0 256 0C250.478 0 246 4.477 246 10V98C246 103.523 250.478 108 256 108Z" fill="#D5B665"/>
<path d="M149.603 121.794C151.473 124.937 154.796 126.682 158.207 126.682C159.946 126.682 161.708 126.228 163.311 125.274C168.057 122.45 169.616 116.313 166.791 111.566L125.993 43.004C123.169 38.258 117.031 36.701 112.286 39.524C107.54 42.348 105.981 48.485 108.806 53.232L149.603 121.794Z" fill="#D5B665"/>
<path d="M348.69 125.274C350.293 126.228 352.054 126.682 353.794 126.682C357.204 126.682 360.527 124.937 362.398 121.794L403.196 53.232C406.02 48.486 404.462 42.349 399.716 39.524C394.972 36.699 388.833 38.259 386.009 43.004L345.211 111.566C342.386 116.313 343.944 122.45 348.69 125.274V125.274Z" fill="#D5B665"/>
<path d="M256 158C258.63 158 261.21 156.93 263.069 155.07C264.929 153.21 266 150.63 266 148C266 145.37 264.93 142.79 263.069 140.93C261.21 139.07 258.63 138 256 138C253.37 138 250.79 139.07 248.93 140.93C247.07 142.79 246 145.37 246 148C246 150.63 247.069 153.21 248.93 155.07C250.791 156.93 253.37 158 256 158Z" fill="#D5B665"/>
</svg>
