<svg width="512" height="512" viewBox="0 0 512 512" fill="none" xmlns="http://www.w3.org/2000/svg">
<g clip-path="url(#clip0_3_353)">
<path d="M510.02 444.267L499.743 407.251C495.61 392.363 485.243 380.002 471.301 373.337C457.36 366.672 441.23 366.37 427.049 372.504L347.264 407.062L338.297 373.596C337.669 371.253 336.258 369.329 334.422 368.028L289.131 199.187L331.752 40.2966C334.352 30.6089 332.341 20.4882 326.236 12.5304C320.131 4.57167 310.876 0.0078125 300.846 0.0078125C286.393 0.0078125 273.684 9.75751 269.94 23.7161L256.001 75.6804L242.063 23.7161C238.319 9.75751 225.609 0.0078125 211.156 0.0078125C201.127 0.0078125 191.872 4.57167 185.766 12.5304C179.662 20.4882 177.652 30.6099 180.25 40.2966L222.872 199.188L177.581 368.028C175.745 369.329 174.334 371.253 173.706 373.596L164.792 407.036L84.9534 372.504C70.7719 366.37 54.6424 366.673 40.7008 373.337C26.7593 380.001 16.3916 392.362 12.2587 407.251L1.98104 444.267C-2.52382 460.493 0.737076 477.489 10.9288 490.895C21.1194 504.302 36.624 511.992 53.4644 511.992H66.006C71.5279 511.992 76.0057 507.515 76.0057 501.992C76.0057 496.469 71.5279 491.992 66.006 491.992H53.4644C42.9278 491.992 33.2271 487.182 26.8503 478.793C20.4735 470.404 18.4325 459.77 21.2514 449.618L31.5281 412.602C34.114 403.286 40.6008 395.551 49.3236 391.383C58.0483 387.212 68.14 387.024 77.0127 390.862L156.851 425.394C162.179 427.697 168.235 427.571 173.464 425.044C178.693 422.516 182.551 417.849 184.054 412.24L190.434 388.433L218.434 395.935L199.335 467.214C195.426 481.804 182.146 491.993 167.042 491.993H156.002C150.48 491.993 146.003 496.47 146.003 501.993C146.003 507.516 150.48 511.993 156.002 511.993H167.042C191.182 511.993 212.404 495.707 218.652 472.39L240.34 391.452C241.021 388.91 240.65 386.339 239.506 384.184L255.999 322.694L272.494 384.183C271.35 386.338 270.978 388.909 271.66 391.452L293.347 472.39C299.595 495.706 320.818 511.992 344.957 511.992H458.536C475.376 511.992 490.881 504.303 501.071 490.895C511.264 477.489 514.524 460.493 510.02 444.267V444.267ZM290.984 375.921L277.61 326.065L300.792 319.853L314.165 369.708L290.984 375.921ZM289.255 28.8979C290.659 23.6631 295.426 20.0072 300.846 20.0072C304.608 20.0072 308.076 21.7191 310.366 24.703C312.655 27.6869 313.409 31.4818 312.434 35.1147L278.776 160.592L266.353 114.275L289.255 28.8979ZM201.634 24.703C203.924 21.7191 207.394 20.0072 211.154 20.0072C216.574 20.0072 221.341 23.6631 222.745 28.8979L295.61 300.538L272.429 306.75L199.566 35.1147C198.591 31.4828 199.345 27.6879 201.634 24.703V24.703ZM245.647 284.098L239.572 306.749L216.39 300.537L233.224 237.782L245.647 284.098ZM221.017 375.922L197.835 369.71L211.208 319.855L234.39 326.067L221.017 375.922ZM485.15 478.793C478.773 487.182 469.072 491.992 458.536 491.992H344.957C329.854 491.992 316.573 481.803 312.664 467.214L293.565 395.934L321.565 388.432L327.945 412.239C329.448 417.848 333.307 422.515 338.536 425.043C343.763 427.57 349.817 427.696 355.148 425.393L434.987 390.861C443.859 387.023 453.952 387.213 462.676 391.382C471.398 395.55 477.885 403.285 480.471 412.601L490.748 449.617C493.568 459.77 491.527 470.404 485.15 478.793V478.793Z" fill="#D5B665"/>
<path d="M111.005 491.992C108.375 491.992 105.795 493.062 103.935 494.922C102.075 496.782 101.005 499.362 101.005 501.992C101.005 504.622 102.074 507.202 103.935 509.062C105.796 510.922 108.375 511.992 111.005 511.992C113.635 511.992 116.215 510.922 118.074 509.062C119.934 507.202 121.005 504.622 121.005 501.992C121.005 499.362 119.935 496.782 118.074 494.922C116.215 493.062 113.635 491.992 111.005 491.992V491.992Z" fill="#D5B665"/>
</g>
<defs>
<clipPath id="clip0_3_353">
<rect width="512" height="512" fill="white"/>
</clipPath>
</defs>
</svg>
