<svg width="512" height="512" viewBox="0 0 512 512" fill="none" xmlns="http://www.w3.org/2000/svg">
<path d="M337.25 302H306V277.182C322.338 266.878 335.297 251.686 342.806 233.672C349.999 238.849 358.74 241.775 367.973 241.775C391.733 241.775 411.064 222.445 411.064 198.685V82.532C411.063 37.023 374.04 0 328.532 0C306.804 0 285.954 8.618 270.563 23.796C265.816 23.054 260.952 22.667 256 22.667C204.168 22.667 162 64.835 162 116.667V145.279C156.639 142.383 150.509 140.736 144 140.736H114.5C93.547 140.736 76.5 157.783 76.5 178.736C76.5 185.244 78.147 191.375 81.043 196.736H62.019C41.066 196.736 24.019 213.783 24.019 234.736C24.019 255.689 41.066 272.736 62.019 272.736H109.519V315.844C53.294 340.908 14 397.323 14 462.75V502C14 507.523 18.477 512 24 512H211.127C216.65 512 221.127 507.523 221.127 502C221.127 496.477 216.65 492 211.127 492H34V462.75C34 401.564 73.249 349.381 127.889 330.031L186.346 388.488C188.221 390.363 190.764 391.417 193.417 391.417C196.07 391.417 198.613 390.363 200.488 388.488L237.416 351.56L248.928 363.072C250.881 365.025 253.44 366.001 255.999 366.001C258.558 366.001 261.118 365.025 263.07 363.072L274.582 351.56L311.511 388.489C313.464 390.441 316.023 391.418 318.582 391.418C321.141 391.418 323.701 390.441 325.653 388.489L384.11 330.032C438.751 349.381 478 401.564 478 462.75V492H301.127C295.604 492 291.127 496.477 291.127 502C291.127 507.523 295.604 512 301.127 512H488C493.523 512 498 507.523 498 502V462.75C498 374.112 425.888 302 337.25 302ZM256 271.619C215.196 271.619 182 238.423 182 197.619V178.736V177.592C190.363 183.884 200.753 187.619 212 187.619H300C311.247 187.619 321.637 183.884 330 177.592V197.619C330 238.423 296.804 271.619 256 271.619ZM206 302H182V255.521C188.684 264.045 196.808 271.385 206 277.182V302ZM330 116.667V127.62H182V116.667C182 112.913 182.286 109.225 182.828 105.62H329.172C329.714 109.224 330 112.913 330 116.667ZM328.287 147.619C324.16 159.26 313.038 167.619 300 167.619H212C198.962 167.619 187.841 159.26 183.713 147.619H328.287ZM328.532 20C363.012 20 391.064 48.052 391.064 82.532V198.685C391.064 211.417 380.706 221.775 367.973 221.775C360.28 221.775 353.219 217.991 348.939 211.749C349.637 207.139 350.001 202.421 350.001 197.619V116.666C350.001 78.256 326.841 45.159 293.756 30.591C303.96 23.765 316.052 20 328.532 20V20ZM256 42.667C285.719 42.667 311.386 60.286 323.147 85.62H188.853C200.614 60.286 226.281 42.667 256 42.667ZM114.5 160.736H144C153.925 160.736 162 168.811 162 178.736V196.736H114.5C104.575 196.736 96.5 188.661 96.5 178.736C96.5 168.811 104.575 160.736 114.5 160.736ZM44.019 234.736C44.019 224.811 52.094 216.736 62.019 216.736H91.519C101.444 216.736 109.519 224.811 109.519 234.736V252.736H62.019C52.094 252.736 44.019 244.661 44.019 234.736ZM129.519 262.736V234.736C129.519 228.227 127.872 222.097 124.976 216.736H162V302.505C150.814 303.387 139.95 305.425 129.519 308.488V262.736ZM193.417 367.274L150.276 324.134C158.227 322.734 166.404 322 174.75 322H207.857L223.274 337.417L193.417 367.274ZM256 341.858L226 311.858V286.71C235.425 289.892 245.515 291.619 256 291.619C266.485 291.619 276.575 289.892 286 286.71V311.858L256 341.858ZM318.583 367.274L288.726 337.416L304.143 322H337.25C345.596 322 353.773 322.735 361.723 324.134L318.583 367.274Z" fill="#D5B665"/>
<path d="M261.929 222.231C260.346 223.815 258.24 224.687 256 224.687C253.76 224.687 251.655 223.815 250.071 222.231C246.166 218.326 239.834 218.326 235.928 222.231C232.023 226.136 232.023 232.468 235.928 236.374C241.289 241.735 248.417 244.687 255.999 244.687C263.581 244.687 270.709 241.734 276.07 236.374C279.975 232.469 279.975 226.137 276.07 222.231C272.166 218.326 265.834 218.326 261.929 222.231Z" fill="#D5B665"/>
<path d="M416.086 429.984C416.086 409.031 399.039 391.984 378.086 391.984C357.133 391.984 340.086 409.031 340.086 429.984C340.086 450.937 357.133 467.984 378.086 467.984C399.039 467.984 416.086 450.937 416.086 429.984ZM360.086 429.984C360.086 420.059 368.161 411.984 378.086 411.984C388.011 411.984 396.086 420.059 396.086 429.984C396.086 439.909 388.011 447.984 378.086 447.984C368.161 447.984 360.086 439.909 360.086 429.984Z" fill="#D5B665"/>
<path d="M256.13 492C253.49 492 250.92 493.07 249.06 494.93C247.19 496.79 246.13 499.37 246.13 502C246.13 504.63 247.19 507.21 249.06 509.07C250.92 510.93 253.49 512 256.13 512C258.76 512 261.34 510.93 263.2 509.07C265.06 507.21 266.13 504.63 266.13 502C266.13 499.37 265.06 496.79 263.2 494.93C261.34 493.07 258.76 492 256.13 492Z" fill="#D5B665"/>
</svg>
