<svg width="2052" height="350" viewBox="0 0 2052 350" fill="none" xmlns="http://www.w3.org/2000/svg">
<path d="M173.001 225.21C176.083 225.21 178.581 222.711 178.581 219.629C178.581 216.546 176.083 214.047 173.001 214.047C169.919 214.047 167.42 216.546 167.42 219.629C167.42 222.711 169.919 225.21 173.001 225.21Z" fill="#D5B665"/>
<path d="M128.355 180.556C131.437 180.556 133.936 178.057 133.936 174.974C133.936 171.891 131.437 169.392 128.355 169.392C125.274 169.392 122.775 171.891 122.775 174.974C122.775 178.057 125.274 180.556 128.355 180.556Z" fill="#D5B665"/>
<path d="M136.91 189.928C135.733 187.081 132.468 185.725 129.617 186.908C126.771 188.086 125.414 191.351 126.598 194.203C127.775 197.05 131.04 198.406 133.891 197.223C136.738 196.04 138.088 192.775 136.91 189.928Z" fill="#D5B665"/>
<path d="M137.485 202.604C135.303 204.786 135.303 208.319 137.485 210.496C139.667 212.679 143.2 212.679 145.376 210.496C147.558 208.314 147.558 204.781 145.376 202.604C143.2 200.421 139.667 200.421 137.485 202.604Z" fill="#D5B665"/>
<path d="M158.05 211.071C155.204 209.894 151.939 211.245 150.756 214.091C149.579 216.938 150.93 220.203 153.775 221.386C156.621 222.564 159.886 221.213 161.069 218.366C162.252 215.52 160.896 212.255 158.05 211.071Z" fill="#D5B665"/>
<path d="M173.001 202.883C176.083 202.883 178.581 200.384 178.581 197.301C178.581 194.219 176.083 191.72 173.001 191.72C169.919 191.72 167.42 194.219 167.42 197.301C167.42 200.384 169.919 202.883 173.001 202.883Z" fill="#D5B665"/>
<path d="M150.678 180.556C153.76 180.556 156.258 178.057 156.258 174.974C156.258 171.891 153.76 169.392 150.678 169.392C147.596 169.392 145.098 171.891 145.098 174.974C145.098 178.057 147.596 180.556 150.678 180.556Z" fill="#D5B665"/>
<path d="M153.267 186.813C151.085 188.995 151.085 192.528 153.267 194.705C155.449 196.888 158.981 196.888 161.158 194.705C163.34 192.523 163.34 188.99 161.158 186.813C158.982 184.636 155.449 184.636 153.267 186.813Z" fill="#D5B665"/>
<path d="M245.549 174.974C245.549 153.171 235.839 133.635 220.575 120.322L237.479 58.3412L196.428 78.8715L173.001 55.4443L149.579 78.8715L108.528 58.3412L125.431 120.322C110.163 133.635 100.453 153.171 100.453 174.974C100.453 214.984 132.999 247.538 173.001 247.538C213.002 247.538 245.549 214.984 245.549 174.974ZM125.866 79.4907L151.783 92.4519L173.001 71.2296L194.224 92.4573L220.14 79.4961L210.943 113.244C199.888 106.423 186.925 102.415 173.006 102.415C159.088 102.415 146.124 106.422 135.069 113.244L125.866 79.4907ZM111.613 174.974C111.613 141.12 139.154 113.573 173.001 113.573C206.848 113.573 234.388 141.12 234.388 174.974C234.388 208.828 206.848 236.375 173.001 236.375C139.154 236.375 111.613 208.828 111.613 174.974Z" fill="#D5B665"/>
<path d="M212.065 174.974H223.226C223.226 147.272 200.697 124.738 173.001 124.738V135.901C194.536 135.901 212.065 153.428 212.065 174.974Z" fill="#D5B665"/>
<path d="M346 82.3821V80.0712C346 74.1095 343.679 68.5 339.459 64.2859C335.246 60.0717 329.643 57.7492 323.688 57.7492C323.683 57.7492 323.677 57.7492 323.671 57.7492H321.366L295.774 83.3473V46.8597H280.779C244.828 46.8597 207.879 31.4095 176.728 3.36587L173.001 0L169.267 3.36587C138.122 31.4088 101.172 46.8597 65.2219 46.8597H50.2269V83.348L24.6337 57.7499H22.3287C22.3232 57.7499 22.3178 57.7499 22.3117 57.7499C16.3575 57.7499 10.7539 60.0717 6.54067 64.2865C2.32202 68.4952 0 74.1048 0 80.0718V82.3828L54.3776 136.772C63.0664 183.565 85.3448 226.863 118.041 261.114L92.7892 286.377C90.7078 288.465 87.3481 288.571 85.1327 286.6L38.8424 245.439L8.29935 275.989C3.02536 281.264 0.000679582 288.564 0.000679582 296.033C0.000679582 305.929 5.27467 315.24 13.7623 320.336L52.7596 343.746C57.3914 346.526 62.6933 348 68.1005 348C76.0641 348 83.5473 344.896 89.1727 339.27L104.988 323.451C120.223 331.752 145.565 336.842 172.999 336.842C200.434 336.842 225.775 331.751 241.011 323.451L256.826 339.27C262.457 344.902 269.946 348 277.904 348C283.306 348 288.608 346.526 293.24 343.746L332.242 320.336C340.731 315.245 345.999 305.929 345.999 296.033C345.999 288.564 342.974 281.263 337.7 275.983L307.157 245.434L260.86 286.594C258.65 288.564 255.302 288.453 253.214 286.371L227.956 261.107C260.653 226.857 282.925 183.565 291.62 136.772L346 82.3821ZM325.793 69.109C327.969 69.5222 329.973 70.5771 331.569 72.1792C333.171 73.7812 334.231 75.785 334.644 77.9566L294.285 118.33C294.954 112.045 295.379 105.721 295.557 99.3576L325.793 69.109ZM61.3879 58.0231H65.2219C102.495 58.0231 140.594 42.7625 173.001 14.9425C205.413 42.7571 243.512 58.0231 280.779 58.0231H284.613V92.7197C284.613 173.545 241.938 249.318 173.001 291.271C104.063 249.313 61.3879 173.545 61.3879 92.7142V58.0231ZM11.358 77.9559C11.7766 75.7789 12.8313 73.7805 14.433 72.1785C16.0347 70.5765 18.038 69.5216 20.2092 69.1083L50.4505 99.3562C50.6292 105.72 51.0478 112.043 51.7226 118.329L11.358 77.9559ZM11.1623 296.033C11.1623 291.501 12.993 287.08 16.1903 283.876L39.2882 260.773L70.4225 288.448L41.4091 323.92L19.5051 310.77C14.3603 307.677 11.1623 302.033 11.1623 296.033ZM81.2831 331.377C75.3676 337.294 65.6738 338.477 58.5032 334.18L51.0811 329.726L78.8557 295.771C85.4521 300.706 94.7606 300.181 100.676 294.27L125.962 268.978C128.981 271.864 132.062 274.683 135.237 277.418L81.2831 331.377ZM173.001 325.683C149.422 325.683 127.066 321.654 113.255 315.19L143.826 284.612C152.146 291.132 160.936 297.143 170.166 302.58L173.001 304.248L175.836 302.58C185.067 297.143 193.856 291.132 202.183 284.607L232.754 315.184C218.935 321.654 196.579 325.683 173.001 325.683ZM329.81 283.876C333.008 287.08 334.838 291.506 334.838 296.033C334.838 302.028 331.647 307.677 326.501 310.769L304.592 323.92L275.578 288.452L306.712 260.778L329.81 283.876ZM267.146 295.771L294.92 329.725L287.498 334.179C280.321 338.477 270.628 337.288 264.718 331.377L210.77 277.411C213.946 274.676 217.021 271.857 220.04 268.971L245.326 294.263C251.247 300.191 260.561 300.711 267.146 295.771Z" fill="#D5B665"/>
<path d="M564.38 66.36C564.38 75.4067 562.31 83.38 558.17 90.28C554.03 97.0267 548.203 102.317 540.69 106.15C533.33 109.83 524.743 111.67 514.93 111.67C513.703 111.67 512.093 111.517 510.1 111.21C508.107 110.903 506.497 110.443 505.27 109.83C504.963 109.523 504.35 108.987 503.43 108.22C502.51 107.3 502.05 106.15 502.05 104.77C502.05 103.85 502.433 103.467 503.2 103.62C504.427 103.927 505.73 104.31 507.11 104.77C508.49 105.077 510.023 105.23 511.71 105.23C520.757 105.23 528.347 102.24 534.48 96.26C540.613 90.1267 543.68 81.4633 543.68 70.27C543.68 59.0767 540.613 50.1067 534.48 43.36C528.347 36.6133 519.07 33.24 506.65 33.24C505.27 33.24 503.123 33.3167 500.21 33.47C497.45 33.6233 495.84 34.2367 495.38 35.31C494.767 36.69 494.383 39.0667 494.23 42.44C494.23 45.66 494.23 48.9567 494.23 52.33V148.01C494.23 151.383 494.23 154.527 494.23 157.44C494.383 160.353 494.767 162.73 495.38 164.57C495.687 165.337 496.913 166.027 499.06 166.64C501.207 167.253 503.43 167.713 505.73 168.02C508.183 168.173 509.87 168.25 510.79 168.25C511.25 168.863 511.48 169.937 511.48 171.47C511.633 173.003 511.403 174.077 510.79 174.69C506.19 174.383 501.743 174.153 497.45 174C493.31 173.693 489.017 173.54 484.57 173.54C480.277 173.54 475.907 173.693 471.46 174C467.167 174.153 462.72 174.383 458.12 174.69C457.507 174.077 457.2 173.003 457.2 171.47C457.353 169.937 457.66 168.863 458.12 168.25C459.04 168.25 460.65 168.173 462.95 168.02C465.403 167.713 467.703 167.253 469.85 166.64C472.15 166.027 473.377 165.337 473.53 164.57C474.143 162.73 474.45 160.353 474.45 157.44C474.603 154.527 474.68 151.383 474.68 148.01V52.1C474.68 48.7267 474.603 45.5833 474.45 42.67C474.45 39.6033 474.143 37.15 473.53 35.31C473.377 34.39 472.15 33.7 469.85 33.24C467.703 32.78 465.403 32.4733 462.95 32.32C460.65 32.0133 459.04 31.86 458.12 31.86C457.66 31.2467 457.353 30.1733 457.2 28.64C457.2 27.1067 457.507 26.0333 458.12 25.42C462.72 25.5733 467.167 25.8033 471.46 26.11C475.907 26.2633 480.277 26.34 484.57 26.34C489.017 26.34 493.77 26.2633 498.83 26.11C504.043 25.9567 509.947 25.88 516.54 25.88C524.513 25.88 532.103 27.49 539.31 30.71C546.67 33.7767 552.65 38.3 557.25 44.28C562.003 50.26 564.38 57.62 564.38 66.36ZM606.763 26.34C617.343 26.34 628.996 26.11 641.723 25.65C654.45 25.19 666.87 24.96 678.983 24.96C679.75 30.6333 680.746 35.8467 681.973 40.6C683.2 45.3533 684.35 50.26 685.423 55.32C684.656 56.0867 683.353 56.47 681.513 56.47C679.52 56.47 678.446 55.9333 678.293 54.86C675.84 45.8133 672.39 40.0633 667.943 37.61C663.496 35.1567 658.283 33.93 652.303 33.93H632.983C632.063 33.93 630.376 34.0067 627.923 34.16C625.47 34.16 623.17 34.3133 621.023 34.62C618.876 34.9267 617.65 35.4633 617.343 36.23C616.883 37.7633 616.576 39.7567 616.423 42.21C616.423 44.6633 616.423 47.1933 616.423 49.8C616.423 50.8733 616.423 51.7167 616.423 52.33V94.19C616.423 94.8033 617.42 95.1867 619.413 95.34C621.406 95.4933 623.63 95.57 626.083 95.57H637.813C643.18 95.57 647.32 95.4167 650.233 95.11C653.3 94.8033 655.523 94.1133 656.903 93.04C658.283 91.9667 659.356 90.3567 660.123 88.21C660.89 86.0633 661.733 83.15 662.653 79.47C662.806 78.3967 663.88 77.86 665.873 77.86C667.713 77.86 669.016 78.2433 669.783 79.01V121.33C669.17 121.943 667.943 122.25 666.103 122.25C664.263 122.25 663.113 121.713 662.653 120.64C661.58 116.347 660.66 113.28 659.893 111.44C659.28 109.447 658.666 108.143 658.053 107.53C657.593 106.763 656.98 106.15 656.213 105.69C655.446 105.077 653.683 104.693 650.923 104.54C648.163 104.233 645.096 104.08 641.723 104.08C638.503 103.927 635.436 103.85 632.523 103.85C630.53 103.85 628.23 103.927 625.623 104.08C623.17 104.08 621.023 104.233 619.183 104.54C617.343 104.693 616.423 105.153 616.423 105.92V148.7C616.423 149.007 616.423 149.467 616.423 150.08C616.423 152.227 616.423 154.987 616.423 158.36C616.576 161.733 616.96 163.65 617.573 164.11C619.106 165.183 620.946 165.873 623.093 166.18C625.393 166.333 628.92 166.41 633.673 166.41H644.483C649.85 166.41 655.14 165.873 660.353 164.8C665.566 163.727 669.706 162.193 672.773 160.2C676.3 158.053 679.06 154.987 681.053 151C683.046 146.86 684.963 142.413 686.803 137.66C687.11 136.74 688.183 136.28 690.023 136.28C692.783 136.28 694.623 136.74 695.543 137.66C693.396 143.793 691.02 150.31 688.413 157.21C685.96 164.11 684.35 170.013 683.583 174.92C671.47 174.92 659.433 174.767 647.473 174.46C635.513 174.153 622.02 174 606.993 174C601.78 174 597.103 174.077 592.963 174.23C588.823 174.537 584.53 174.69 580.083 174.69C579.47 174.077 579.163 173.003 579.163 171.47C579.316 169.937 579.623 168.863 580.083 168.25C581.003 168.25 582.69 168.173 585.143 168.02C587.596 167.713 589.896 167.253 592.043 166.64C594.343 166.027 595.57 165.337 595.723 164.57C596.336 162.73 596.643 160.353 596.643 157.44C596.796 154.527 596.873 151.383 596.873 148.01V52.1C596.873 48.7267 596.796 45.5833 596.643 42.67C596.643 39.6033 596.336 37.15 595.723 35.31C595.57 34.39 594.343 33.7 592.043 33.24C589.896 32.78 587.596 32.4733 585.143 32.32C582.69 32.0133 581.003 31.86 580.083 31.86C579.623 31.2467 579.316 30.1733 579.163 28.64C579.163 27.1067 579.47 26.0333 580.083 25.42C584.683 25.5733 589.206 25.8033 593.653 26.11C598.1 26.2633 602.47 26.34 606.763 26.34ZM734.009 25.65C737.382 25.65 740.679 25.65 743.899 25.65C747.119 25.65 749.495 25.5733 751.029 25.42C753.329 28.9467 757.009 33.93 762.069 40.37C767.129 46.81 773.032 54.17 779.779 62.45C786.525 70.5767 793.502 79.01 800.709 87.75C807.915 96.49 814.892 105.153 821.639 113.74C828.385 122.173 834.212 129.84 839.119 136.74V51.64C839.119 47.6533 839.042 44.51 838.889 42.21C838.735 39.91 838.045 37.84 836.819 36C836.359 35.2333 834.979 34.5433 832.679 33.93C830.379 33.1633 827.925 32.6267 825.319 32.32C822.865 31.86 821.025 31.63 819.799 31.63C819.185 30.8633 818.879 29.79 818.879 28.41C819.032 26.8767 819.185 25.8033 819.339 25.19C823.785 25.3433 827.925 25.5733 831.759 25.88C835.745 26.0333 840.192 26.11 845.099 26.11C848.625 26.11 851.462 26.11 853.609 26.11C855.909 25.9567 858.209 25.8033 860.509 25.65C862.962 25.4967 865.875 25.3433 869.249 25.19C869.555 25.8033 869.785 26.7233 869.939 27.95C870.092 29.1767 869.862 30.4033 869.249 31.63C868.329 31.63 866.489 31.7833 863.729 32.09C861.122 32.3967 858.592 32.9333 856.139 33.7C853.685 34.3133 852.152 35.08 851.539 36C850.465 37.6867 849.852 39.6033 849.699 41.75C849.545 43.8967 849.469 47.1167 849.469 51.41V142.72C849.469 147.013 849.469 150.77 849.469 153.99C849.469 157.21 849.469 160.353 849.469 163.42C849.622 166.333 849.775 169.783 849.929 173.77C849.775 174.383 849.315 174.767 848.549 174.92C847.782 175.073 847.245 175.15 846.939 175.15C846.325 175.15 845.252 174.767 843.719 174C842.339 173.233 840.805 171.853 839.119 169.86L741.139 46.12V148.24C741.139 152.227 741.215 155.37 741.369 157.67C741.675 159.817 742.365 161.81 743.439 163.65C743.899 164.417 745.202 165.183 747.349 165.95C749.649 166.563 752.025 167.1 754.479 167.56C757.085 168.02 759.002 168.25 760.229 168.25C760.842 169.017 761.149 170.09 761.149 171.47C761.149 172.85 760.995 173.923 760.689 174.69C756.242 174.383 752.102 174.153 748.269 174C744.435 173.693 740.065 173.54 735.159 173.54C731.785 173.54 728.872 173.617 726.419 173.77C724.119 173.923 721.819 174.077 719.519 174.23C717.372 174.383 714.535 174.537 711.009 174.69C710.702 174.077 710.472 173.157 710.319 171.93C710.165 170.703 710.395 169.477 711.009 168.25C711.929 168.25 713.692 168.097 716.299 167.79C718.905 167.33 721.435 166.793 723.889 166.18C726.495 165.413 728.029 164.57 728.489 163.65C729.562 161.963 730.175 160.123 730.329 158.13C730.635 155.983 730.789 152.763 730.789 148.47V50.95C730.789 46.6567 730.635 43.4367 730.329 41.29C730.175 39.1433 729.562 37.2267 728.489 35.54C728.029 34.62 726.495 33.8533 723.889 33.24C721.435 32.4733 718.905 31.9367 716.299 31.63C713.692 31.3233 711.929 31.17 711.009 31.17C710.395 29.9433 710.165 28.7167 710.319 27.49C710.472 26.2633 710.702 25.3433 711.009 24.73C716.222 24.8833 720.439 25.1133 723.659 25.42C726.879 25.5733 730.329 25.65 734.009 25.65ZM934.531 24.5C939.284 24.5 943.194 24.8067 946.261 25.42C949.481 25.88 952.701 26.57 955.921 27.49C959.294 28.41 963.434 29.4833 968.341 30.71C969.261 36.5367 969.951 42.5933 970.411 48.88C971.024 55.0133 971.408 59.6133 971.561 62.68C971.714 63.4467 971.178 64.06 969.951 64.52C968.724 64.8267 967.728 64.98 966.961 64.98C965.888 64.98 965.044 64.6733 964.431 64.06C964.124 61.3 963.204 58.08 961.671 54.4C960.138 50.72 957.991 47.1933 955.231 43.82C952.624 40.4467 949.404 37.6867 945.571 35.54C941.891 33.24 937.674 32.09 932.921 32.09C926.788 32.09 921.958 33.3933 918.431 36C914.904 38.6067 912.374 41.8267 910.841 45.66C909.308 49.4933 908.541 53.25 908.541 56.93C908.541 62.91 910.074 67.8933 913.141 71.88C916.361 75.8667 920.348 79.3933 925.101 82.46C930.008 85.5267 934.914 88.67 939.821 91.89C943.501 94.19 947.564 96.72 952.011 99.48C956.458 102.24 960.751 105.307 964.891 108.68C969.031 112.053 972.404 115.963 975.011 120.41C977.618 124.703 978.921 129.61 978.921 135.13C978.921 143.257 976.621 150.463 972.021 156.75C967.574 162.883 961.748 167.713 954.541 171.24C947.488 174.613 939.974 176.3 932.001 176.3C924.488 176.3 917.204 175.457 910.151 173.77C903.251 172.083 897.041 170.703 891.521 169.63C890.601 165.183 889.758 160.43 888.991 155.37C888.378 150.31 887.841 145.863 887.381 142.03C887.074 138.197 886.921 135.82 886.921 134.9C887.688 134.133 888.531 133.52 889.451 133.06C890.524 132.447 891.598 132.14 892.671 132.14C894.051 132.14 894.894 132.83 895.201 134.21C895.661 136.357 896.581 139.347 897.961 143.18C899.494 146.86 901.641 150.693 904.401 154.68C907.314 158.667 910.994 162.04 915.441 164.8C920.041 167.407 925.714 168.71 932.461 168.71C939.668 168.71 945.954 166.333 951.321 161.58C956.688 156.673 959.371 149.85 959.371 141.11C959.371 134.823 957.914 129.917 955.001 126.39C952.241 122.863 948.561 119.797 943.961 117.19C939.514 114.583 934.684 111.823 929.471 108.91C923.798 105.537 917.894 101.857 911.761 97.87C905.781 93.73 900.721 88.9 896.581 83.38C892.441 77.86 890.371 71.3433 890.371 63.83C890.371 55.8567 892.441 48.9567 896.581 43.13C900.874 37.15 906.394 32.55 913.141 29.33C919.888 26.11 927.018 24.5 934.531 24.5ZM1025.43 26.34C1036.01 26.34 1047.67 26.11 1060.39 25.65C1073.12 25.19 1085.54 24.96 1097.65 24.96C1098.42 30.6333 1099.42 35.8467 1100.64 40.6C1101.87 45.3533 1103.02 50.26 1104.09 55.32C1103.33 56.0867 1102.02 56.47 1100.18 56.47C1098.19 56.47 1097.12 55.9333 1096.96 54.86C1094.51 45.8133 1091.06 40.0633 1086.61 37.61C1082.17 35.1567 1076.95 33.93 1070.97 33.93H1051.65C1050.73 33.93 1049.05 34.0067 1046.59 34.16C1044.14 34.16 1041.84 34.3133 1039.69 34.62C1037.55 34.9267 1036.32 35.4633 1036.01 36.23C1035.55 37.7633 1035.25 39.7567 1035.09 42.21C1035.09 44.6633 1035.09 47.1933 1035.09 49.8C1035.09 50.8733 1035.09 51.7167 1035.09 52.33V94.19C1035.09 94.8033 1036.09 95.1867 1038.08 95.34C1040.08 95.4933 1042.3 95.57 1044.75 95.57H1056.48C1061.85 95.57 1065.99 95.4167 1068.9 95.11C1071.97 94.8033 1074.19 94.1133 1075.57 93.04C1076.95 91.9667 1078.03 90.3567 1078.79 88.21C1079.56 86.0633 1080.4 83.15 1081.32 79.47C1081.48 78.3967 1082.55 77.86 1084.54 77.86C1086.38 77.86 1087.69 78.2433 1088.45 79.01V121.33C1087.84 121.943 1086.61 122.25 1084.77 122.25C1082.93 122.25 1081.78 121.713 1081.32 120.64C1080.25 116.347 1079.33 113.28 1078.56 111.44C1077.95 109.447 1077.34 108.143 1076.72 107.53C1076.26 106.763 1075.65 106.15 1074.88 105.69C1074.12 105.077 1072.35 104.693 1069.59 104.54C1066.83 104.233 1063.77 104.08 1060.39 104.08C1057.17 103.927 1054.11 103.85 1051.19 103.85C1049.2 103.85 1046.9 103.927 1044.29 104.08C1041.84 104.08 1039.69 104.233 1037.85 104.54C1036.01 104.693 1035.09 105.153 1035.09 105.92V148.7C1035.09 149.007 1035.09 149.467 1035.09 150.08C1035.09 152.227 1035.09 154.987 1035.09 158.36C1035.25 161.733 1035.63 163.65 1036.24 164.11C1037.78 165.183 1039.62 165.873 1041.76 166.18C1044.06 166.333 1047.59 166.41 1052.34 166.41H1063.15C1068.52 166.41 1073.81 165.873 1079.02 164.8C1084.24 163.727 1088.38 162.193 1091.44 160.2C1094.97 158.053 1097.73 154.987 1099.72 151C1101.72 146.86 1103.63 142.413 1105.47 137.66C1105.78 136.74 1106.85 136.28 1108.69 136.28C1111.45 136.28 1113.29 136.74 1114.21 137.66C1112.07 143.793 1109.69 150.31 1107.08 157.21C1104.63 164.11 1103.02 170.013 1102.25 174.92C1090.14 174.92 1078.1 174.767 1066.14 174.46C1054.18 174.153 1040.69 174 1025.66 174C1020.45 174 1015.77 174.077 1011.63 174.23C1007.49 174.537 1003.2 174.69 998.755 174.69C998.141 174.077 997.835 173.003 997.835 171.47C997.988 169.937 998.295 168.863 998.755 168.25C999.675 168.25 1001.36 168.173 1003.81 168.02C1006.27 167.713 1008.57 167.253 1010.71 166.64C1013.01 166.027 1014.24 165.337 1014.39 164.57C1015.01 162.73 1015.31 160.353 1015.31 157.44C1015.47 154.527 1015.54 151.383 1015.54 148.01V52.1C1015.54 48.7267 1015.47 45.5833 1015.31 42.67C1015.31 39.6033 1015.01 37.15 1014.39 35.31C1014.24 34.39 1013.01 33.7 1010.71 33.24C1008.57 32.78 1006.27 32.4733 1003.81 32.32C1001.36 32.0133 999.675 31.86 998.755 31.86C998.295 31.2467 997.988 30.1733 997.835 28.64C997.835 27.1067 998.141 26.0333 998.755 25.42C1003.35 25.5733 1007.88 25.8033 1012.32 26.11C1016.77 26.2633 1021.14 26.34 1025.43 26.34ZM1177.78 148.01V113.97C1177.78 111.977 1177.25 109.907 1176.17 107.76C1172.95 101.78 1170.04 96.5667 1167.43 92.12C1164.98 87.6733 1162.6 83.4567 1160.3 79.47C1158 75.4833 1155.55 71.2667 1152.94 66.82C1150.49 62.22 1147.58 56.93 1144.2 50.95C1141.75 46.81 1139.45 43.6667 1137.3 41.52C1135.16 39.22 1132.55 37.15 1129.48 35.31C1127.49 34.0833 1125.19 33.24 1122.58 32.78C1120.13 32.1667 1118.21 31.86 1116.83 31.86C1116.22 31.86 1115.91 30.94 1115.91 29.1C1115.91 27.26 1116.22 26.0333 1116.83 25.42C1122.35 25.5733 1127.03 25.8033 1130.86 26.11C1134.7 26.2633 1139.37 26.34 1144.89 26.34C1150.41 26.34 1155.47 26.2633 1160.07 26.11C1164.67 25.8033 1169.2 25.5733 1173.64 25.42C1173.95 26.0333 1174.1 27.26 1174.1 29.1C1174.1 30.94 1173.8 31.86 1173.18 31.86C1172.11 31.86 1170.5 32.09 1168.35 32.55C1166.21 32.8567 1164.21 33.5467 1162.37 34.62C1160.69 35.54 1159.84 36.9967 1159.84 38.99C1159.84 40.6767 1160.69 42.9 1162.37 45.66L1193.65 99.71C1196.41 94.8033 1199.33 89.4367 1202.39 83.61C1205.46 77.63 1208.37 71.88 1211.13 66.36C1213.89 60.6867 1216.27 55.6267 1218.26 51.18C1220.41 46.7333 1221.94 43.5133 1222.86 41.52C1223.02 41.2133 1223.17 40.7533 1223.32 40.14C1223.48 39.3733 1223.55 38.6833 1223.55 38.07C1223.55 36.8433 1222.48 35.54 1220.33 34.16C1218.34 32.78 1214.2 32.09 1207.91 32.09C1207.61 32.09 1207.38 31.0933 1207.22 29.1C1207.22 26.9533 1207.3 25.7267 1207.45 25.42C1211.59 25.5733 1215.27 25.8033 1218.49 26.11C1221.87 26.4167 1225.62 26.57 1229.76 26.57C1233.75 26.57 1236.97 26.4933 1239.42 26.34C1242.03 26.1867 1244.48 26.0333 1246.78 25.88C1249.08 25.7267 1251.69 25.5733 1254.6 25.42C1254.91 26.0333 1254.99 27.3367 1254.83 29.33C1254.68 31.17 1254.45 32.09 1254.14 32.09C1253.53 32.09 1251.92 32.2433 1249.31 32.55C1246.71 32.7033 1243.95 33.3933 1241.03 34.62C1238.12 35.8467 1235.82 37.9933 1234.13 41.06C1231.99 44.74 1229.38 49.4167 1226.31 55.09C1223.25 60.61 1220.03 66.5133 1216.65 72.8C1213.28 78.9333 1209.98 84.99 1206.76 90.97C1203.7 96.7967 1200.94 101.933 1198.48 106.38C1197.87 107.453 1197.56 108.45 1197.56 109.37C1197.56 110.29 1197.56 111.21 1197.56 112.13C1197.56 112.59 1197.56 112.973 1197.56 113.28C1197.56 117.727 1197.56 122.71 1197.56 128.23C1197.56 133.597 1197.49 138.273 1197.33 142.26C1197.33 146.093 1197.33 148.01 1197.33 148.01C1197.33 148.47 1197.33 148.93 1197.33 149.39C1197.33 149.85 1197.33 150.31 1197.33 150.77C1197.33 153.683 1197.33 156.367 1197.33 158.82C1197.49 161.12 1197.79 163.037 1198.25 164.57C1198.56 165.337 1199.79 166.027 1201.93 166.64C1204.08 167.253 1206.38 167.713 1208.83 168.02C1211.29 168.173 1212.97 168.25 1213.89 168.25C1214.35 168.863 1214.58 169.937 1214.58 171.47C1214.74 173.003 1214.51 174.077 1213.89 174.69C1209.29 174.383 1204.85 174.153 1200.55 174C1196.41 173.693 1192.12 173.54 1187.67 173.54C1183.38 173.54 1179.01 173.693 1174.56 174C1170.12 174.153 1165.59 174.383 1160.99 174.69C1160.38 174.077 1160.07 173.003 1160.07 171.47C1160.23 169.937 1160.53 168.863 1160.99 168.25C1161.91 168.25 1163.6 168.173 1166.05 168.02C1168.51 167.713 1170.81 167.253 1172.95 166.64C1175.25 166.027 1176.48 165.337 1176.63 164.57C1177.25 162.73 1177.55 160.353 1177.55 157.44C1177.71 154.527 1177.78 151.383 1177.78 148.01ZM1273.69 16.91C1275.99 16.91 1277.91 17.9067 1279.44 19.9C1279.44 21.4333 1279.37 24.04 1279.21 27.72C1279.06 31.2467 1278.83 35.2333 1278.52 39.68C1278.22 44.1267 1277.83 48.4967 1277.37 52.79C1277.07 57.0833 1276.76 60.6867 1276.45 63.6C1275.69 65.2867 1274.15 66.6667 1271.85 67.74C1270.93 67.74 1270.24 67.28 1269.78 66.36C1267.33 58.2333 1265.41 51.41 1264.03 45.89C1262.65 40.2167 1261.96 35.8467 1261.96 32.78C1261.96 30.6333 1262.42 28.3333 1263.34 25.88C1264.42 23.4267 1265.8 21.3567 1267.48 19.67C1269.32 17.83 1271.39 16.91 1273.69 16.91ZM1347.81 24.5C1352.57 24.5 1356.48 24.8067 1359.54 25.42C1362.76 25.88 1365.98 26.57 1369.2 27.49C1372.58 28.41 1376.72 29.4833 1381.62 30.71C1382.54 36.5367 1383.23 42.5933 1383.69 48.88C1384.31 55.0133 1384.69 59.6133 1384.84 62.68C1385 63.4467 1384.46 64.06 1383.23 64.52C1382.01 64.8267 1381.01 64.98 1380.24 64.98C1379.17 64.98 1378.33 64.6733 1377.71 64.06C1377.41 61.3 1376.49 58.08 1374.95 54.4C1373.42 50.72 1371.27 47.1933 1368.51 43.82C1365.91 40.4467 1362.69 37.6867 1358.85 35.54C1355.17 33.24 1350.96 32.09 1346.2 32.09C1340.07 32.09 1335.24 33.3933 1331.71 36C1328.19 38.6067 1325.66 41.8267 1324.12 45.66C1322.59 49.4933 1321.82 53.25 1321.82 56.93C1321.82 62.91 1323.36 67.8933 1326.42 71.88C1329.64 75.8667 1333.63 79.3933 1338.38 82.46C1343.29 85.5267 1348.2 88.67 1353.1 91.89C1356.78 94.19 1360.85 96.72 1365.29 99.48C1369.74 102.24 1374.03 105.307 1378.17 108.68C1382.31 112.053 1385.69 115.963 1388.29 120.41C1390.9 124.703 1392.2 129.61 1392.2 135.13C1392.2 143.257 1389.9 150.463 1385.3 156.75C1380.86 162.883 1375.03 167.713 1367.82 171.24C1360.77 174.613 1353.26 176.3 1345.28 176.3C1337.77 176.3 1330.49 175.457 1323.43 173.77C1316.53 172.083 1310.32 170.703 1304.8 169.63C1303.88 165.183 1303.04 160.43 1302.27 155.37C1301.66 150.31 1301.12 145.863 1300.66 142.03C1300.36 138.197 1300.2 135.82 1300.2 134.9C1300.97 134.133 1301.81 133.52 1302.73 133.06C1303.81 132.447 1304.88 132.14 1305.95 132.14C1307.33 132.14 1308.18 132.83 1308.48 134.21C1308.94 136.357 1309.86 139.347 1311.24 143.18C1312.78 146.86 1314.92 150.693 1317.68 154.68C1320.6 158.667 1324.28 162.04 1328.72 164.8C1333.32 167.407 1339 168.71 1345.74 168.71C1352.95 168.71 1359.24 166.333 1364.6 161.58C1369.97 156.673 1372.65 149.85 1372.65 141.11C1372.65 134.823 1371.2 129.917 1368.28 126.39C1365.52 122.863 1361.84 119.797 1357.24 117.19C1352.8 114.583 1347.97 111.823 1342.75 108.91C1337.08 105.537 1331.18 101.857 1325.04 97.87C1319.06 93.73 1314 88.9 1309.86 83.38C1305.72 77.86 1303.65 71.3433 1303.65 63.83C1303.65 55.8567 1305.72 48.9567 1309.86 43.13C1314.16 37.15 1319.68 32.55 1326.42 29.33C1333.17 26.11 1340.3 24.5 1347.81 24.5ZM1555.78 24.27C1563.14 24.27 1570.81 24.5767 1578.78 25.19C1586.91 25.8033 1595.11 27.03 1603.39 28.87C1603.39 28.87 1603.62 30.48 1604.08 33.7C1604.7 36.7667 1605.31 40.4467 1605.92 44.74C1606.54 48.88 1607.07 52.7133 1607.53 56.24C1608.15 59.6133 1608.45 61.6067 1608.45 62.22C1608.61 62.8333 1608.15 63.4467 1607.07 64.06C1606 64.6733 1604.85 64.98 1603.62 64.98C1602.55 64.98 1601.63 64.75 1600.86 64.29C1600.56 62.6033 1599.79 59.9967 1598.56 56.47C1597.49 52.9433 1595.42 49.2633 1592.35 45.43C1589.44 41.5967 1585.15 38.3767 1579.47 35.77C1573.8 33.01 1566.29 31.63 1556.93 31.63C1548.65 31.63 1541.14 33.5467 1534.39 37.38C1527.65 41.06 1521.82 46.12 1516.91 52.56C1512.16 58.8467 1508.48 65.9 1505.87 73.72C1503.42 81.3867 1502.19 89.13 1502.19 96.95C1502.19 105.69 1503.34 114.277 1505.64 122.71C1508.1 131.143 1511.7 138.81 1516.45 145.71C1521.36 152.457 1527.42 157.9 1534.62 162.04C1541.98 166.027 1550.57 168.02 1560.38 168.02C1567.28 168.02 1573.11 166.947 1577.86 164.8C1582.77 162.653 1586.83 160.123 1590.05 157.21C1594.5 153.223 1597.72 148.777 1599.71 143.87C1601.71 138.963 1603.09 134.67 1603.85 130.99C1606.46 130.683 1608.84 131.297 1610.98 132.83C1610.98 133.903 1610.68 136.05 1610.06 139.27C1609.6 142.49 1608.99 146.017 1608.22 149.85C1607.46 153.53 1606.61 156.827 1605.69 159.74C1604.77 162.653 1603.93 164.493 1603.16 165.26C1597.03 168.633 1590.05 171.163 1582.23 172.85C1574.41 174.537 1565.29 175.38 1554.86 175.38C1543.82 175.38 1533.7 173.463 1524.5 169.63C1515.3 165.643 1507.33 160.277 1500.58 153.53C1493.99 146.63 1488.85 138.81 1485.17 130.07C1481.65 121.177 1479.88 111.747 1479.88 101.78C1479.88 91.2 1481.72 81.31 1485.4 72.11C1489.24 62.7567 1494.53 54.4767 1501.27 47.27C1508.02 40.0633 1515.99 34.4667 1525.19 30.48C1534.55 26.34 1544.74 24.27 1555.78 24.27ZM1666.92 148.01C1666.92 148.317 1666.92 148.777 1666.92 149.39C1666.92 150.77 1666.92 152.61 1666.92 154.91C1666.92 157.057 1667 159.05 1667.15 160.89C1667.3 162.73 1667.61 163.803 1668.07 164.11C1669.6 165.183 1671.44 165.873 1673.59 166.18C1675.89 166.333 1679.42 166.41 1684.17 166.41H1696.82C1701.11 166.41 1705.79 165.95 1710.85 165.03C1716.06 163.957 1720.2 162.347 1723.27 160.2C1726.03 158.207 1728.56 155.447 1730.86 151.92C1733.31 148.393 1735.46 143.64 1737.3 137.66C1737.61 136.74 1738.68 136.28 1740.52 136.28C1743.28 136.28 1745.12 136.74 1746.04 137.66C1743.89 143.793 1741.52 150.31 1738.91 157.21C1736.46 164.11 1734.85 170.013 1734.08 174.92C1721.97 174.92 1709.93 174.767 1697.97 174.46C1686.01 174.153 1672.52 174 1657.49 174C1652.28 174 1647.6 174.077 1643.46 174.23C1639.32 174.537 1635.03 174.69 1630.58 174.69C1629.97 174.077 1629.66 173.003 1629.66 171.47C1629.81 169.937 1630.12 168.863 1630.58 168.25C1631.5 168.25 1633.19 168.173 1635.64 168.02C1638.09 167.713 1640.39 167.253 1642.54 166.64C1644.84 166.027 1646.07 165.337 1646.22 164.57C1646.83 162.73 1647.14 160.353 1647.14 157.44C1647.29 154.527 1647.37 151.383 1647.37 148.01V52.1C1647.37 48.7267 1647.29 45.5833 1647.14 42.67C1647.14 39.6033 1646.83 37.15 1646.22 35.31C1646.07 34.39 1644.84 33.7 1642.54 33.24C1640.39 32.78 1638.09 32.4733 1635.64 32.32C1633.19 32.0133 1631.5 31.86 1630.58 31.86C1630.12 31.2467 1629.81 30.1733 1629.66 28.64C1629.66 27.1067 1629.97 26.0333 1630.58 25.42C1635.18 25.5733 1639.7 25.8033 1644.15 26.11C1648.6 26.2633 1652.97 26.34 1657.26 26.34C1661.71 26.34 1666 26.2633 1670.14 26.11C1674.43 25.8033 1678.88 25.5733 1683.48 25.42C1684.09 26.0333 1684.32 27.1067 1684.17 28.64C1684.17 30.1733 1683.94 31.2467 1683.48 31.86C1682.56 31.86 1680.87 32.0133 1678.42 32.32C1675.97 32.4733 1673.67 32.78 1671.52 33.24C1669.37 33.7 1668.15 34.39 1667.84 35.31C1667.38 36.8433 1667.07 38.8367 1666.92 41.29C1666.92 43.7433 1666.92 46.4267 1666.92 49.34C1666.92 49.8 1666.92 50.26 1666.92 50.72C1666.92 51.18 1666.92 51.64 1666.92 52.1V148.01ZM1777.34 26.34C1781.79 26.34 1786.08 26.2633 1790.22 26.11C1794.51 25.8033 1798.96 25.5733 1803.56 25.42C1804.17 26.0333 1804.4 27.1067 1804.25 28.64C1804.25 30.1733 1804.02 31.2467 1803.56 31.86C1802.64 31.86 1800.95 32.0133 1798.5 32.32C1796.2 32.4733 1793.98 32.78 1791.83 33.24C1789.68 33.7 1788.46 34.39 1788.15 35.31C1787.54 37.15 1787.15 39.6033 1787 42.67C1787 45.5833 1787 48.7267 1787 52.1V107.53C1787 116.883 1787.92 125.01 1789.76 131.91C1791.75 138.81 1794.51 144.483 1798.04 148.93C1805.09 157.517 1815.37 161.81 1828.86 161.81C1836.68 161.81 1843.81 160.353 1850.25 157.44C1856.69 154.527 1861.9 149.543 1865.89 142.49C1870.03 135.283 1872.18 125.24 1872.33 112.36V51.64C1872.33 47.6533 1872.25 44.51 1872.1 42.21C1871.95 39.91 1871.26 37.84 1870.03 36C1869.57 35.2333 1868.27 34.5433 1866.12 33.93C1863.97 33.1633 1861.67 32.6267 1859.22 32.32C1856.92 31.86 1855.16 31.63 1853.93 31.63C1853.32 30.8633 1853.01 29.79 1853.01 28.41C1853.16 26.8767 1853.32 25.8033 1853.47 25.19C1857.92 25.3433 1861.9 25.5733 1865.43 25.88C1869.11 26.0333 1873.4 26.11 1878.31 26.11C1881.84 26.11 1884.67 26.11 1886.82 26.11C1889.12 25.9567 1891.42 25.8033 1893.72 25.65C1896.17 25.4967 1899.09 25.3433 1902.46 25.19C1902.77 25.8033 1903 26.7233 1903.15 27.95C1903.3 29.1767 1903.07 30.4033 1902.46 31.63C1901.54 31.63 1899.78 31.7833 1897.17 32.09C1894.56 32.3967 1892.03 32.9333 1889.58 33.7C1887.13 34.3133 1885.59 35.08 1884.98 36C1883.91 37.6867 1883.22 39.6033 1882.91 41.75C1882.76 43.8967 1882.68 47.1167 1882.68 51.41V111.9C1882.68 126.773 1880.23 138.887 1875.32 148.24C1870.41 157.44 1863.51 164.187 1854.62 168.48C1845.88 172.773 1835.68 174.92 1824.03 174.92C1816.06 174.92 1808.62 173.617 1801.72 171.01C1794.82 168.403 1788.92 164.723 1784.01 159.97C1778.8 155.063 1774.73 149.007 1771.82 141.8C1768.91 134.593 1767.45 126.543 1767.45 117.65V52.1C1767.45 48.7267 1767.37 45.5833 1767.22 42.67C1767.22 39.6033 1766.91 37.15 1766.3 35.31C1766.15 34.39 1764.92 33.7 1762.62 33.24C1760.47 32.78 1758.17 32.4733 1755.72 32.32C1753.42 32.0133 1751.81 31.86 1750.89 31.86C1750.43 31.2467 1750.12 30.1733 1749.97 28.64C1749.97 27.1067 1750.28 26.0333 1750.89 25.42C1755.49 25.5733 1759.94 25.8033 1764.23 26.11C1768.68 26.2633 1773.05 26.34 1777.34 26.34ZM1975.15 25.88C1980.21 25.88 1985.43 26.4933 1990.79 27.72C1996.16 28.7933 2001.07 30.6333 2005.51 33.24C2009.96 35.6933 2013.56 39.0667 2016.32 43.36C2019.08 47.6533 2020.46 53.02 2020.46 59.46C2020.46 65.1333 2019.08 70.27 2016.32 74.87C2013.72 79.47 2010.57 83.2267 2006.89 86.14C2003.37 89.0533 2000.3 91.0467 1997.69 92.12C1997.23 92.4267 1997.23 92.7333 1997.69 93.04C2000.45 93.1933 2003.67 94.1133 2007.35 95.8C2011.03 97.4867 2014.64 99.94 2018.16 103.16C2021.84 106.227 2024.83 109.983 2027.13 114.43C2029.43 118.877 2030.58 123.86 2030.58 129.38C2030.58 135.82 2029.43 141.8 2027.13 147.32C2024.99 152.84 2021.15 157.9 2015.63 162.5C2010.27 166.947 2003.21 170.09 1994.47 171.93C1985.73 173.617 1977.07 174.537 1968.48 174.69H1916.73C1916.12 174.077 1915.81 173.003 1915.81 171.47C1915.97 169.937 1916.27 168.863 1916.73 168.25C1917.65 168.25 1919.34 168.173 1921.79 168.02C1924.25 167.713 1926.55 167.253 1928.69 166.64C1930.99 166.027 1932.22 165.337 1932.37 164.57C1932.99 162.73 1933.29 160.353 1933.29 157.44C1933.45 154.527 1933.52 151.383 1933.52 148.01V52.1C1933.52 48.7267 1933.45 45.5833 1933.29 42.67C1933.29 39.6033 1932.99 37.15 1932.37 35.31C1932.22 34.39 1930.99 33.7 1928.69 33.24C1926.55 32.78 1924.25 32.4733 1921.79 32.32C1919.34 32.0133 1917.65 31.86 1916.73 31.86C1916.27 31.2467 1915.97 30.1733 1915.81 28.64C1915.81 27.1067 1916.12 26.0333 1916.73 25.42C1921.33 25.5733 1925.86 25.8033 1930.3 26.11C1934.75 26.2633 1939.12 26.34 1943.41 26.34C1947.86 26.34 1952.61 26.2633 1957.67 26.11C1962.73 25.9567 1968.56 25.88 1975.15 25.88ZM1953.07 99.48V148.24C1953.07 149.313 1953.07 151 1953.07 153.3C1953.23 155.447 1953.46 157.517 1953.76 159.51C1954.07 161.503 1954.45 162.807 1954.91 163.42C1956.6 165.26 1958.9 166.41 1961.81 166.87C1964.88 167.33 1968.48 167.56 1972.62 167.56C1978.3 167.56 1983.82 166.717 1989.18 165.03C1994.7 163.343 1999.3 160.123 2002.98 155.37C2006.66 150.463 2008.5 143.487 2008.5 134.44C2008.5 128.767 2007.43 123.323 2005.28 118.11C2003.14 112.743 1999 108.297 1992.86 104.77C1986.88 101.243 1978.14 99.48 1966.64 99.48H1953.07ZM1953.07 90.97H1971.7C1978.45 90.97 1983.89 89.6667 1988.03 87.06C1992.17 84.4533 1995.16 81.1567 1997 77.17C1999 73.03 1999.99 68.8133 1999.99 64.52C1999.99 54.5533 1996.77 46.8867 1990.33 41.52C1984.05 36 1975.69 33.24 1965.26 33.24C1963.88 33.24 1961.74 33.3167 1958.82 33.47C1956.06 33.6233 1954.45 34.2367 1953.99 35.31C1953.53 36.5367 1953.23 38.4533 1953.07 41.06C1953.07 43.6667 1953.07 46.4267 1953.07 49.34C1953.07 49.9533 1953.07 50.49 1953.07 50.95C1953.07 51.41 1953.07 51.87 1953.07 52.33V90.97Z" fill="white"/>
<path d="M476.989 349.28C474.139 349.28 471.542 348.995 469.199 348.425C466.855 347.918 464.829 347.127 463.119 346.05C461.472 344.973 460.174 343.675 459.224 342.155C458.337 340.635 457.894 338.862 457.894 336.835C457.894 334.872 458.495 333.003 459.699 331.23C460.902 329.457 462.549 327.842 464.639 326.385V326.005C463.499 325.308 462.517 324.358 461.694 323.155C460.934 321.888 460.554 320.337 460.554 318.5C460.554 316.537 461.092 314.827 462.169 313.37C463.245 311.913 464.385 310.773 465.589 309.95V309.57C464.069 308.303 462.675 306.625 461.409 304.535C460.205 302.382 459.604 299.912 459.604 297.125C459.604 294.592 460.047 292.312 460.934 290.285C461.884 288.258 463.15 286.548 464.734 285.155C466.317 283.698 468.154 282.59 470.244 281.83C472.397 281.07 474.645 280.69 476.989 280.69C478.255 280.69 479.427 280.817 480.504 281.07C481.644 281.26 482.657 281.513 483.544 281.83H499.599V287.815H490.099C491.175 288.892 492.062 290.253 492.759 291.9C493.519 293.547 493.899 295.352 493.899 297.315C493.899 299.785 493.455 302.033 492.569 304.06C491.682 306.023 490.479 307.702 488.959 309.095C487.439 310.425 485.634 311.47 483.544 312.23C481.517 312.99 479.332 313.37 476.989 313.37C475.849 313.37 474.677 313.243 473.474 312.99C472.27 312.673 471.13 312.262 470.054 311.755C469.23 312.452 468.534 313.243 467.964 314.13C467.394 314.953 467.109 315.998 467.109 317.265C467.109 318.722 467.679 319.925 468.819 320.875C469.959 321.825 472.112 322.3 475.279 322.3H484.209C489.592 322.3 493.614 323.187 496.274 324.96C498.997 326.67 500.359 329.457 500.359 333.32C500.359 335.473 499.82 337.5 498.744 339.4C497.667 341.363 496.115 343.073 494.089 344.53C492.062 345.987 489.592 347.127 486.679 347.95C483.829 348.837 480.599 349.28 476.989 349.28ZM476.989 308.145C478.319 308.145 479.554 307.892 480.694 307.385C481.897 306.878 482.942 306.15 483.829 305.2C484.779 304.25 485.507 303.11 486.014 301.78C486.52 300.387 486.774 298.835 486.774 297.125C486.774 293.705 485.824 291.077 483.924 289.24C482.024 287.34 479.712 286.39 476.989 286.39C474.265 286.39 471.954 287.34 470.054 289.24C468.154 291.077 467.204 293.705 467.204 297.125C467.204 298.835 467.457 300.387 467.964 301.78C468.47 303.11 469.167 304.25 470.054 305.2C471.004 306.15 472.049 306.878 473.189 307.385C474.392 307.892 475.659 308.145 476.989 308.145ZM478.129 343.865C480.345 343.865 482.34 343.58 484.114 343.01C485.95 342.503 487.502 341.807 488.769 340.92C490.035 340.097 491.017 339.115 491.714 337.975C492.41 336.835 492.759 335.663 492.759 334.46C492.759 332.307 491.967 330.818 490.384 329.995C488.8 329.172 486.489 328.76 483.449 328.76H475.469C474.582 328.76 473.6 328.697 472.524 328.57C471.51 328.507 470.497 328.317 469.484 328C467.837 329.203 466.634 330.47 465.874 331.8C465.114 333.13 464.734 334.46 464.734 335.79C464.734 338.26 465.905 340.223 468.249 341.68C470.655 343.137 473.949 343.865 478.129 343.865ZM533.536 329.14C530.686 329.14 527.962 328.602 525.366 327.525C522.832 326.448 520.584 324.897 518.621 322.87C516.657 320.78 515.074 318.247 513.871 315.27C512.731 312.23 512.161 308.81 512.161 305.01C512.161 301.147 512.731 297.727 513.871 294.75C515.074 291.71 516.657 289.145 518.621 287.055C520.584 284.965 522.832 283.382 525.366 282.305C527.962 281.228 530.686 280.69 533.536 280.69C536.386 280.69 539.077 281.228 541.611 282.305C544.207 283.382 546.487 284.965 548.451 287.055C550.414 289.145 551.966 291.71 553.106 294.75C554.309 297.727 554.911 301.147 554.911 305.01C554.911 308.81 554.309 312.23 553.106 315.27C551.966 318.247 550.414 320.78 548.451 322.87C546.487 324.897 544.207 326.448 541.611 327.525C539.077 328.602 536.386 329.14 533.536 329.14ZM533.536 322.68C535.499 322.68 537.304 322.268 538.951 321.445C540.597 320.558 541.991 319.355 543.131 317.835C544.334 316.252 545.252 314.383 545.886 312.23C546.519 310.077 546.836 307.67 546.836 305.01C546.836 302.35 546.519 299.943 545.886 297.79C545.252 295.573 544.334 293.673 543.131 292.09C541.991 290.507 540.597 289.303 538.951 288.48C537.304 287.593 535.499 287.15 533.536 287.15C531.572 287.15 529.767 287.593 528.121 288.48C526.474 289.303 525.049 290.507 523.846 292.09C522.706 293.673 521.819 295.573 521.186 297.79C520.552 299.943 520.236 302.35 520.236 305.01C520.236 307.67 520.552 310.077 521.186 312.23C521.819 314.383 522.706 316.252 523.846 317.835C525.049 319.355 526.474 320.558 528.121 321.445C529.767 322.268 531.572 322.68 533.536 322.68ZM582.935 329.14C579.958 329.14 577.837 328.253 576.57 326.48C575.303 324.707 574.67 322.11 574.67 318.69V260.36H582.46V319.26C582.46 320.527 582.682 321.413 583.125 321.92C583.568 322.427 584.075 322.68 584.645 322.68C584.898 322.68 585.12 322.68 585.31 322.68C585.563 322.68 585.912 322.617 586.355 322.49L587.4 328.38C586.893 328.633 586.292 328.823 585.595 328.95C584.898 329.077 584.012 329.14 582.935 329.14ZM607.814 328V288.195H601.544V282.305L607.814 281.83V274.515C607.814 269.765 608.891 266.028 611.044 263.305C613.261 260.582 616.681 259.22 621.304 259.22C622.761 259.22 624.122 259.378 625.389 259.695C626.719 259.948 627.922 260.297 628.999 260.74L627.289 266.725C625.579 265.965 623.837 265.585 622.064 265.585C617.757 265.585 615.604 268.562 615.604 274.515V281.83H625.389V288.195H615.604V328H607.814ZM669.772 328V288.195H663.502V282.305L669.772 281.83V274.515C669.772 269.765 670.848 266.028 673.002 263.305C675.218 260.582 678.638 259.22 683.262 259.22C684.718 259.22 686.08 259.378 687.347 259.695C688.677 259.948 689.88 260.297 690.957 260.74L689.247 266.725C687.537 265.965 685.795 265.585 684.022 265.585C679.715 265.585 677.562 268.562 677.562 274.515V281.83H687.347V288.195H677.562V328H669.772ZM720.808 329.14C717.958 329.14 715.235 328.602 712.638 327.525C710.105 326.448 707.857 324.897 705.893 322.87C703.93 320.78 702.347 318.247 701.143 315.27C700.003 312.23 699.433 308.81 699.433 305.01C699.433 301.147 700.003 297.727 701.143 294.75C702.347 291.71 703.93 289.145 705.893 287.055C707.857 284.965 710.105 283.382 712.638 282.305C715.235 281.228 717.958 280.69 720.808 280.69C723.658 280.69 726.35 281.228 728.883 282.305C731.48 283.382 733.76 284.965 735.723 287.055C737.687 289.145 739.238 291.71 740.378 294.75C741.582 297.727 742.183 301.147 742.183 305.01C742.183 308.81 741.582 312.23 740.378 315.27C739.238 318.247 737.687 320.78 735.723 322.87C733.76 324.897 731.48 326.448 728.883 327.525C726.35 328.602 723.658 329.14 720.808 329.14ZM720.808 322.68C722.772 322.68 724.577 322.268 726.223 321.445C727.87 320.558 729.263 319.355 730.403 317.835C731.607 316.252 732.525 314.383 733.158 312.23C733.792 310.077 734.108 307.67 734.108 305.01C734.108 302.35 733.792 299.943 733.158 297.79C732.525 295.573 731.607 293.673 730.403 292.09C729.263 290.507 727.87 289.303 726.223 288.48C724.577 287.593 722.772 287.15 720.808 287.15C718.845 287.15 717.04 287.593 715.393 288.48C713.747 289.303 712.322 290.507 711.118 292.09C709.978 293.673 709.092 295.573 708.458 297.79C707.825 299.943 707.508 302.35 707.508 305.01C707.508 307.67 707.825 310.077 708.458 312.23C709.092 314.383 709.978 316.252 711.118 317.835C712.322 319.355 713.747 320.558 715.393 321.445C717.04 322.268 718.845 322.68 720.808 322.68ZM761.943 328V281.83H768.403L769.068 290.19H769.353C770.936 287.277 772.836 284.965 775.053 283.255C777.333 281.545 779.803 280.69 782.463 280.69C784.299 280.69 785.946 281.007 787.403 281.64L785.883 288.48C785.123 288.227 784.426 288.037 783.793 287.91C783.159 287.783 782.368 287.72 781.418 287.72C779.454 287.72 777.396 288.512 775.243 290.095C773.153 291.678 771.316 294.433 769.733 298.36V328H761.943ZM829.096 347.475V281.83H835.556L836.221 287.15H836.506C838.596 285.377 840.876 283.857 843.346 282.59C845.879 281.323 848.507 280.69 851.231 280.69C854.207 280.69 856.836 281.26 859.116 282.4C861.396 283.477 863.296 285.06 864.816 287.15C866.336 289.177 867.476 291.647 868.236 294.56C869.059 297.41 869.471 300.64 869.471 304.25C869.471 308.177 868.932 311.692 867.856 314.795C866.779 317.835 865.322 320.432 863.486 322.585C861.649 324.738 859.527 326.385 857.121 327.525C854.714 328.602 852.181 329.14 849.521 329.14C847.367 329.14 845.214 328.665 843.061 327.715C840.971 326.765 838.849 325.467 836.696 323.82L836.886 331.895V347.475H829.096ZM848.191 322.585C850.091 322.585 851.832 322.173 853.416 321.35C855.062 320.463 856.456 319.26 857.596 317.74C858.799 316.157 859.717 314.225 860.351 311.945C861.047 309.665 861.396 307.1 861.396 304.25C861.396 301.717 861.174 299.405 860.731 297.315C860.287 295.225 859.559 293.452 858.546 291.995C857.596 290.475 856.329 289.303 854.746 288.48C853.226 287.657 851.389 287.245 849.236 287.245C847.272 287.245 845.277 287.783 843.251 288.86C841.287 289.937 839.166 291.488 836.886 293.515V317.74C838.976 319.513 841.002 320.78 842.966 321.54C844.929 322.237 846.671 322.585 848.191 322.585ZM889.391 328V281.83H895.851L896.516 290.19H896.801C898.384 287.277 900.284 284.965 902.501 283.255C904.781 281.545 907.251 280.69 909.911 280.69C911.748 280.69 913.394 281.007 914.851 281.64L913.331 288.48C912.571 288.227 911.874 288.037 911.241 287.91C910.608 287.783 909.816 287.72 908.866 287.72C906.903 287.72 904.844 288.512 902.691 290.095C900.601 291.678 898.764 294.433 897.181 298.36V328H889.391ZM946.953 329.14C944.103 329.14 941.379 328.602 938.783 327.525C936.249 326.448 934.001 324.897 932.038 322.87C930.074 320.78 928.491 318.247 927.288 315.27C926.148 312.23 925.578 308.81 925.578 305.01C925.578 301.147 926.148 297.727 927.288 294.75C928.491 291.71 930.074 289.145 932.038 287.055C934.001 284.965 936.249 283.382 938.783 282.305C941.379 281.228 944.103 280.69 946.953 280.69C949.803 280.69 952.494 281.228 955.028 282.305C957.624 283.382 959.904 284.965 961.868 287.055C963.831 289.145 965.383 291.71 966.523 294.75C967.726 297.727 968.328 301.147 968.328 305.01C968.328 308.81 967.726 312.23 966.523 315.27C965.383 318.247 963.831 320.78 961.868 322.87C959.904 324.897 957.624 326.448 955.028 327.525C952.494 328.602 949.803 329.14 946.953 329.14ZM946.953 322.68C948.916 322.68 950.721 322.268 952.368 321.445C954.014 320.558 955.408 319.355 956.548 317.835C957.751 316.252 958.669 314.383 959.303 312.23C959.936 310.077 960.253 307.67 960.253 305.01C960.253 302.35 959.936 299.943 959.303 297.79C958.669 295.573 957.751 293.673 956.548 292.09C955.408 290.507 954.014 289.303 952.368 288.48C950.721 287.593 948.916 287.15 946.953 287.15C944.989 287.15 943.184 287.593 941.538 288.48C939.891 289.303 938.466 290.507 937.263 292.09C936.123 293.673 935.236 295.573 934.603 297.79C933.969 299.943 933.653 302.35 933.653 305.01C933.653 307.67 933.969 310.077 934.603 312.23C935.236 314.383 936.123 316.252 937.263 317.835C938.466 319.355 939.891 320.558 941.538 321.445C943.184 322.268 944.989 322.68 946.953 322.68ZM989.417 328V288.195H983.147V282.305L989.417 281.83V274.515C989.417 269.765 990.494 266.028 992.647 263.305C994.864 260.582 998.284 259.22 1002.91 259.22C1004.36 259.22 1005.73 259.378 1006.99 259.695C1008.32 259.948 1009.53 260.297 1010.6 260.74L1008.89 266.725C1007.18 265.965 1005.44 265.585 1003.67 265.585C999.36 265.585 997.207 268.562 997.207 274.515V281.83H1006.99V288.195H997.207V328H989.417ZM1041.21 329.14C1038.11 329.14 1035.2 328.602 1032.47 327.525C1029.81 326.385 1027.47 324.802 1025.44 322.775C1023.48 320.685 1021.93 318.152 1020.79 315.175C1019.65 312.198 1019.08 308.81 1019.08 305.01C1019.08 301.21 1019.65 297.822 1020.79 294.845C1021.99 291.805 1023.54 289.24 1025.44 287.15C1027.41 285.06 1029.62 283.477 1032.09 282.4C1034.56 281.26 1037.13 280.69 1039.79 280.69C1042.7 280.69 1045.3 281.197 1047.58 282.21C1049.92 283.223 1051.85 284.68 1053.37 286.58C1054.96 288.48 1056.16 290.76 1056.98 293.42C1057.81 296.08 1058.22 299.057 1058.22 302.35C1058.22 303.173 1058.19 303.997 1058.12 304.82C1058.12 305.58 1058.06 306.245 1057.93 306.815H1026.77C1027.09 311.755 1028.61 315.682 1031.33 318.595C1034.12 321.445 1037.73 322.87 1042.16 322.87C1044.38 322.87 1046.41 322.553 1048.24 321.92C1050.14 321.223 1051.95 320.337 1053.66 319.26L1056.41 324.39C1054.39 325.657 1052.14 326.765 1049.67 327.715C1047.2 328.665 1044.38 329.14 1041.21 329.14ZM1026.68 301.21H1051.38C1051.38 296.523 1050.37 292.977 1048.34 290.57C1046.38 288.1 1043.59 286.865 1039.98 286.865C1038.33 286.865 1036.75 287.182 1035.23 287.815C1033.77 288.448 1032.44 289.398 1031.24 290.665C1030.04 291.868 1029.02 293.357 1028.2 295.13C1027.44 296.903 1026.93 298.93 1026.68 301.21ZM1089.29 329.14C1086 329.14 1082.86 328.538 1079.89 327.335C1076.91 326.132 1074.31 324.612 1072.1 322.775L1075.99 317.55C1078.02 319.197 1080.08 320.527 1082.17 321.54C1084.32 322.553 1086.79 323.06 1089.58 323.06C1092.62 323.06 1094.9 322.363 1096.42 320.97C1097.94 319.577 1098.7 317.867 1098.7 315.84C1098.7 314.637 1098.38 313.592 1097.75 312.705C1097.11 311.818 1096.29 311.058 1095.28 310.425C1094.33 309.728 1093.22 309.127 1091.95 308.62C1090.69 308.113 1089.42 307.607 1088.15 307.1C1086.51 306.53 1084.86 305.897 1083.21 305.2C1081.57 304.44 1080.08 303.553 1078.75 302.54C1077.48 301.463 1076.44 300.228 1075.61 298.835C1074.79 297.442 1074.38 295.763 1074.38 293.8C1074.38 291.963 1074.73 290.253 1075.42 288.67C1076.18 287.023 1077.23 285.63 1078.56 284.49C1079.95 283.287 1081.63 282.368 1083.59 281.735C1085.56 281.038 1087.77 280.69 1090.24 280.69C1093.16 280.69 1095.82 281.197 1098.22 282.21C1100.69 283.223 1102.81 284.458 1104.59 285.915L1100.88 290.855C1099.3 289.652 1097.65 288.67 1095.94 287.91C1094.23 287.15 1092.36 286.77 1090.34 286.77C1087.42 286.77 1085.27 287.435 1083.88 288.765C1082.55 290.095 1081.88 291.647 1081.88 293.42C1081.88 294.497 1082.17 295.447 1082.74 296.27C1083.31 297.03 1084.07 297.727 1085.02 298.36C1085.97 298.93 1087.04 299.468 1088.25 299.975C1089.51 300.418 1090.81 300.893 1092.14 301.4C1093.79 302.033 1095.44 302.698 1097.08 303.395C1098.79 304.092 1100.31 304.978 1101.64 306.055C1102.97 307.068 1104.05 308.335 1104.87 309.855C1105.76 311.375 1106.2 313.212 1106.2 315.365C1106.2 317.265 1105.82 319.038 1105.06 320.685C1104.37 322.332 1103.29 323.788 1101.83 325.055C1100.44 326.322 1098.67 327.303 1096.51 328C1094.42 328.76 1092.02 329.14 1089.29 329.14ZM1136.69 329.14C1133.4 329.14 1130.26 328.538 1127.29 327.335C1124.31 326.132 1121.71 324.612 1119.5 322.775L1123.39 317.55C1125.42 319.197 1127.48 320.527 1129.57 321.54C1131.72 322.553 1134.19 323.06 1136.98 323.06C1140.02 323.06 1142.3 322.363 1143.82 320.97C1145.34 319.577 1146.1 317.867 1146.1 315.84C1146.1 314.637 1145.78 313.592 1145.15 312.705C1144.51 311.818 1143.69 311.058 1142.68 310.425C1141.73 309.728 1140.62 309.127 1139.35 308.62C1138.09 308.113 1136.82 307.607 1135.55 307.1C1133.91 306.53 1132.26 305.897 1130.61 305.2C1128.97 304.44 1127.48 303.553 1126.15 302.54C1124.88 301.463 1123.84 300.228 1123.01 298.835C1122.19 297.442 1121.78 295.763 1121.78 293.8C1121.78 291.963 1122.13 290.253 1122.82 288.67C1123.58 287.023 1124.63 285.63 1125.96 284.49C1127.35 283.287 1129.03 282.368 1130.99 281.735C1132.96 281.038 1135.17 280.69 1137.64 280.69C1140.56 280.69 1143.22 281.197 1145.62 282.21C1148.09 283.223 1150.21 284.458 1151.99 285.915L1148.28 290.855C1146.7 289.652 1145.05 288.67 1143.34 287.91C1141.63 287.15 1139.76 286.77 1137.74 286.77C1134.82 286.77 1132.67 287.435 1131.28 288.765C1129.95 290.095 1129.28 291.647 1129.28 293.42C1129.28 294.497 1129.57 295.447 1130.14 296.27C1130.71 297.03 1131.47 297.727 1132.42 298.36C1133.37 298.93 1134.44 299.468 1135.65 299.975C1136.91 300.418 1138.21 300.893 1139.54 301.4C1141.19 302.033 1142.84 302.698 1144.48 303.395C1146.19 304.092 1147.71 304.978 1149.04 306.055C1150.37 307.068 1151.45 308.335 1152.27 309.855C1153.16 311.375 1153.6 313.212 1153.6 315.365C1153.6 317.265 1153.22 319.038 1152.46 320.685C1151.77 322.332 1150.69 323.788 1149.23 325.055C1147.84 326.322 1146.07 327.303 1143.91 328C1141.82 328.76 1139.42 329.14 1136.69 329.14ZM1172.03 328V281.83H1179.82V328H1172.03ZM1176.02 272.33C1174.5 272.33 1173.2 271.855 1172.12 270.905C1171.11 269.955 1170.6 268.752 1170.6 267.295C1170.6 265.775 1171.11 264.572 1172.12 263.685C1173.2 262.735 1174.5 262.26 1176.02 262.26C1177.54 262.26 1178.8 262.735 1179.82 263.685C1180.89 264.572 1181.43 265.775 1181.43 267.295C1181.43 268.752 1180.89 269.955 1179.82 270.905C1178.8 271.855 1177.54 272.33 1176.02 272.33ZM1220.96 329.14C1218.11 329.14 1215.39 328.602 1212.79 327.525C1210.26 326.448 1208.01 324.897 1206.05 322.87C1204.08 320.78 1202.5 318.247 1201.3 315.27C1200.16 312.23 1199.59 308.81 1199.59 305.01C1199.59 301.147 1200.16 297.727 1201.3 294.75C1202.5 291.71 1204.08 289.145 1206.05 287.055C1208.01 284.965 1210.26 283.382 1212.79 282.305C1215.39 281.228 1218.11 280.69 1220.96 280.69C1223.81 280.69 1226.5 281.228 1229.04 282.305C1231.63 283.382 1233.91 284.965 1235.88 287.055C1237.84 289.145 1239.39 291.71 1240.53 294.75C1241.73 297.727 1242.34 301.147 1242.34 305.01C1242.34 308.81 1241.73 312.23 1240.53 315.27C1239.39 318.247 1237.84 320.78 1235.88 322.87C1233.91 324.897 1231.63 326.448 1229.04 327.525C1226.5 328.602 1223.81 329.14 1220.96 329.14ZM1220.96 322.68C1222.92 322.68 1224.73 322.268 1226.38 321.445C1228.02 320.558 1229.42 319.355 1230.56 317.835C1231.76 316.252 1232.68 314.383 1233.31 312.23C1233.94 310.077 1234.26 307.67 1234.26 305.01C1234.26 302.35 1233.94 299.943 1233.31 297.79C1232.68 295.573 1231.76 293.673 1230.56 292.09C1229.42 290.507 1228.02 289.303 1226.38 288.48C1224.73 287.593 1222.92 287.15 1220.96 287.15C1219 287.15 1217.19 287.593 1215.55 288.48C1213.9 289.303 1212.47 290.507 1211.27 292.09C1210.13 293.673 1209.24 295.573 1208.61 297.79C1207.98 299.943 1207.66 302.35 1207.66 305.01C1207.66 307.67 1207.98 310.077 1208.61 312.23C1209.24 314.383 1210.13 316.252 1211.27 317.835C1212.47 319.355 1213.9 320.558 1215.55 321.445C1217.19 322.268 1219 322.68 1220.96 322.68ZM1262.1 328V281.83H1268.56L1269.22 288.48H1269.51C1271.72 286.263 1274.03 284.427 1276.44 282.97C1278.91 281.45 1281.76 280.69 1284.99 280.69C1289.87 280.69 1293.41 282.21 1295.63 285.25C1297.91 288.29 1299.05 292.787 1299.05 298.74V328H1291.26V299.785C1291.26 295.415 1290.56 292.28 1289.17 290.38C1287.78 288.417 1285.56 287.435 1282.52 287.435C1280.11 287.435 1277.99 288.037 1276.16 289.24C1274.32 290.443 1272.23 292.217 1269.89 294.56V328H1262.1ZM1332.29 329.14C1328.43 329.14 1325.2 328 1322.6 325.72C1320.07 323.44 1318.8 320.21 1318.8 316.03C1318.8 310.963 1321.05 307.1 1325.54 304.44C1330.04 301.717 1337.23 299.817 1347.11 298.74C1347.11 297.283 1346.95 295.858 1346.63 294.465C1346.38 293.072 1345.91 291.837 1345.21 290.76C1344.51 289.683 1343.53 288.828 1342.26 288.195C1341.06 287.498 1339.51 287.15 1337.61 287.15C1334.95 287.15 1332.45 287.657 1330.1 288.67C1327.76 289.683 1325.67 290.823 1323.83 292.09L1320.79 286.675C1322.95 285.282 1325.58 283.952 1328.68 282.685C1331.78 281.355 1335.2 280.69 1338.94 280.69C1344.58 280.69 1348.66 282.432 1351.19 285.915C1353.73 289.335 1354.99 293.927 1354.99 299.69V328H1348.53L1347.87 322.49H1347.58C1345.37 324.327 1342.99 325.91 1340.46 327.24C1337.93 328.507 1335.2 329.14 1332.29 329.14ZM1334.57 322.87C1336.79 322.87 1338.88 322.363 1340.84 321.35C1342.8 320.273 1344.89 318.722 1347.11 316.695V303.87C1343.25 304.377 1339.98 304.978 1337.32 305.675C1334.73 306.372 1332.61 307.195 1330.96 308.145C1329.38 309.095 1328.2 310.203 1327.44 311.47C1326.75 312.673 1326.4 314.003 1326.4 315.46C1326.4 318.12 1327.19 320.02 1328.77 321.16C1330.36 322.3 1332.29 322.87 1334.57 322.87ZM1385.38 329.14C1382.41 329.14 1380.29 328.253 1379.02 326.48C1377.75 324.707 1377.12 322.11 1377.12 318.69V260.36H1384.91V319.26C1384.91 320.527 1385.13 321.413 1385.57 321.92C1386.02 322.427 1386.52 322.68 1387.09 322.68C1387.35 322.68 1387.57 322.68 1387.76 322.68C1388.01 322.68 1388.36 322.617 1388.8 322.49L1389.85 328.38C1389.34 328.633 1388.74 328.823 1388.04 328.95C1387.35 329.077 1386.46 329.14 1385.38 329.14ZM1421 329.14C1417.71 329.14 1414.57 328.538 1411.59 327.335C1408.62 326.132 1406.02 324.612 1403.8 322.775L1407.7 317.55C1409.73 319.197 1411.78 320.527 1413.87 321.54C1416.03 322.553 1418.5 323.06 1421.28 323.06C1424.32 323.06 1426.6 322.363 1428.12 320.97C1429.64 319.577 1430.4 317.867 1430.4 315.84C1430.4 314.637 1430.09 313.592 1429.45 312.705C1428.82 311.818 1428 311.058 1426.98 310.425C1426.03 309.728 1424.93 309.127 1423.66 308.62C1422.39 308.113 1421.13 307.607 1419.86 307.1C1418.21 306.53 1416.57 305.897 1414.92 305.2C1413.27 304.44 1411.78 303.553 1410.45 302.54C1409.19 301.463 1408.14 300.228 1407.32 298.835C1406.5 297.442 1406.08 295.763 1406.08 293.8C1406.08 291.963 1406.43 290.253 1407.13 288.67C1407.89 287.023 1408.93 285.63 1410.26 284.49C1411.66 283.287 1413.34 282.368 1415.3 281.735C1417.26 281.038 1419.48 280.69 1421.95 280.69C1424.86 280.69 1427.52 281.197 1429.93 282.21C1432.4 283.223 1434.52 284.458 1436.29 285.915L1432.59 290.855C1431.01 289.652 1429.36 288.67 1427.65 287.91C1425.94 287.15 1424.07 286.77 1422.04 286.77C1419.13 286.77 1416.98 287.435 1415.58 288.765C1414.25 290.095 1413.59 291.647 1413.59 293.42C1413.59 294.497 1413.87 295.447 1414.44 296.27C1415.01 297.03 1415.77 297.727 1416.72 298.36C1417.67 298.93 1418.75 299.468 1419.95 299.975C1421.22 300.418 1422.52 300.893 1423.85 301.4C1425.5 302.033 1427.14 302.698 1428.79 303.395C1430.5 304.092 1432.02 304.978 1433.35 306.055C1434.68 307.068 1435.76 308.335 1436.58 309.855C1437.47 311.375 1437.91 313.212 1437.91 315.365C1437.91 317.265 1437.53 319.038 1436.77 320.685C1436.07 322.332 1435 323.788 1433.54 325.055C1432.15 326.322 1430.37 327.303 1428.22 328C1426.13 328.76 1423.72 329.14 1421 329.14ZM1497.2 329.14C1494.35 329.14 1491.76 328.728 1489.41 327.905C1487.13 327.018 1485.14 325.815 1483.43 324.295C1481.78 322.775 1480.48 320.97 1479.53 318.88C1478.65 316.727 1478.2 314.383 1478.2 311.85C1478.2 309.76 1478.52 307.86 1479.15 306.15C1479.85 304.44 1480.77 302.857 1481.91 301.4C1483.05 299.943 1484.35 298.613 1485.8 297.41C1487.32 296.143 1488.87 294.972 1490.46 293.895C1489.19 291.298 1488.18 288.797 1487.42 286.39C1486.72 283.92 1486.37 281.545 1486.37 279.265C1486.37 277.175 1486.72 275.243 1487.42 273.47C1488.11 271.697 1489.1 270.145 1490.36 268.815C1491.63 267.485 1493.15 266.44 1494.92 265.68C1496.7 264.92 1498.66 264.54 1500.81 264.54C1504.68 264.54 1507.68 265.68 1509.84 267.96C1511.99 270.24 1513.07 273.217 1513.07 276.89C1513.07 278.917 1512.66 280.785 1511.83 282.495C1511.01 284.205 1509.93 285.82 1508.6 287.34C1507.27 288.797 1505.75 290.19 1504.04 291.52C1502.4 292.787 1500.72 294.053 1499.01 295.32C1501.03 298.55 1503.41 301.653 1506.13 304.63C1508.92 307.607 1511.8 310.33 1514.78 312.8C1516.68 310.203 1518.36 307.385 1519.81 304.345C1521.33 301.305 1522.57 297.98 1523.52 294.37H1530.83C1529.57 298.487 1528.05 302.413 1526.27 306.15C1524.5 309.887 1522.38 313.402 1519.91 316.695C1522.06 318.152 1524.12 319.387 1526.08 320.4C1528.05 321.413 1529.88 322.173 1531.59 322.68L1529.5 329.14C1527.29 328.507 1524.97 327.62 1522.57 326.48C1520.16 325.277 1517.69 323.788 1515.16 322.015C1512.75 324.168 1510.06 325.91 1507.08 327.24C1504.17 328.507 1500.88 329.14 1497.2 329.14ZM1493.12 279.17C1493.12 280.88 1493.37 282.653 1493.88 284.49C1494.45 286.327 1495.18 288.195 1496.06 290.095C1497.46 289.145 1498.79 288.195 1500.05 287.245C1501.38 286.232 1502.52 285.218 1503.47 284.205C1504.49 283.128 1505.28 282.02 1505.85 280.88C1506.42 279.677 1506.7 278.378 1506.7 276.985C1506.7 275.148 1506.23 273.565 1505.28 272.235C1504.39 270.842 1502.9 270.145 1500.81 270.145C1498.47 270.145 1496.6 271 1495.21 272.71C1493.81 274.42 1493.12 276.573 1493.12 279.17ZM1498.06 322.87C1500.21 322.87 1502.27 322.427 1504.23 321.54C1506.2 320.653 1508.1 319.418 1509.93 317.835C1506.89 315.175 1503.95 312.293 1501.1 309.19C1498.31 306.023 1495.81 302.73 1493.59 299.31C1491.38 301.083 1489.51 302.952 1487.99 304.915C1486.53 306.815 1485.8 308.968 1485.8 311.375C1485.8 313.085 1486.12 314.668 1486.75 316.125C1487.39 317.518 1488.24 318.722 1489.32 319.735C1490.46 320.748 1491.76 321.54 1493.21 322.11C1494.73 322.617 1496.35 322.87 1498.06 322.87ZM1595.49 329.14C1593.33 329.14 1591.08 328.633 1588.74 327.62C1586.46 326.543 1584.31 325.087 1582.28 323.25H1582L1581.33 328H1575.06V260.36H1582.85V278.79L1582.66 287.15C1584.75 285.313 1587.03 283.793 1589.5 282.59C1591.97 281.323 1594.5 280.69 1597.1 280.69C1600.08 280.69 1602.71 281.26 1604.99 282.4C1607.27 283.477 1609.17 285.06 1610.69 287.15C1612.27 289.177 1613.44 291.647 1614.2 294.56C1615.02 297.41 1615.44 300.608 1615.44 304.155C1615.44 308.082 1614.9 311.597 1613.82 314.7C1612.74 317.803 1611.29 320.432 1609.45 322.585C1607.61 324.738 1605.49 326.385 1603.09 327.525C1600.68 328.602 1598.15 329.14 1595.49 329.14ZM1594.16 322.585C1596.06 322.585 1597.8 322.173 1599.38 321.35C1601.03 320.463 1602.42 319.26 1603.56 317.74C1604.76 316.157 1605.68 314.225 1606.32 311.945C1607.01 309.665 1607.36 307.1 1607.36 304.25C1607.36 301.717 1607.14 299.405 1606.7 297.315C1606.25 295.225 1605.52 293.452 1604.51 291.995C1603.56 290.475 1602.29 289.303 1600.71 288.48C1599.19 287.657 1597.35 287.245 1595.2 287.245C1591.46 287.245 1587.35 289.335 1582.85 293.515V317.74C1584.88 319.513 1586.87 320.78 1588.84 321.54C1590.86 322.237 1592.64 322.585 1594.16 322.585ZM1653.89 329.14C1650.78 329.14 1647.87 328.602 1645.15 327.525C1642.49 326.385 1640.14 324.802 1638.12 322.775C1636.15 320.685 1634.6 318.152 1633.46 315.175C1632.32 312.198 1631.75 308.81 1631.75 305.01C1631.75 301.21 1632.32 297.822 1633.46 294.845C1634.66 291.805 1636.22 289.24 1638.12 287.15C1640.08 285.06 1642.3 283.477 1644.77 282.4C1647.24 281.26 1649.8 280.69 1652.46 280.69C1655.37 280.69 1657.97 281.197 1660.25 282.21C1662.59 283.223 1664.53 284.68 1666.05 286.58C1667.63 288.48 1668.83 290.76 1669.66 293.42C1670.48 296.08 1670.89 299.057 1670.89 302.35C1670.89 303.173 1670.86 303.997 1670.8 304.82C1670.8 305.58 1670.73 306.245 1670.61 306.815H1639.45C1639.76 311.755 1641.28 315.682 1644.01 318.595C1646.79 321.445 1650.4 322.87 1654.84 322.87C1657.05 322.87 1659.08 322.553 1660.92 321.92C1662.82 321.223 1664.62 320.337 1666.33 319.26L1669.09 324.39C1667.06 325.657 1664.81 326.765 1662.34 327.715C1659.87 328.665 1657.05 329.14 1653.89 329.14ZM1639.35 301.21H1664.05C1664.05 296.523 1663.04 292.977 1661.01 290.57C1659.05 288.1 1656.26 286.865 1652.65 286.865C1651 286.865 1649.42 287.182 1647.9 287.815C1646.44 288.448 1645.11 289.398 1643.91 290.665C1642.71 291.868 1641.69 293.357 1640.87 295.13C1640.11 296.903 1639.6 298.93 1639.35 301.21ZM1704.55 349.28C1701.7 349.28 1699.11 348.995 1696.76 348.425C1694.42 347.918 1692.39 347.127 1690.68 346.05C1689.04 344.973 1687.74 343.675 1686.79 342.155C1685.9 340.635 1685.46 338.862 1685.46 336.835C1685.46 334.872 1686.06 333.003 1687.26 331.23C1688.47 329.457 1690.11 327.842 1692.2 326.385V326.005C1691.06 325.308 1690.08 324.358 1689.26 323.155C1688.5 321.888 1688.12 320.337 1688.12 318.5C1688.12 316.537 1688.66 314.827 1689.73 313.37C1690.81 311.913 1691.95 310.773 1693.15 309.95V309.57C1691.63 308.303 1690.24 306.625 1688.97 304.535C1687.77 302.382 1687.17 299.912 1687.17 297.125C1687.17 294.592 1687.61 292.312 1688.5 290.285C1689.45 288.258 1690.71 286.548 1692.3 285.155C1693.88 283.698 1695.72 282.59 1697.81 281.83C1699.96 281.07 1702.21 280.69 1704.55 280.69C1705.82 280.69 1706.99 280.817 1708.07 281.07C1709.21 281.26 1710.22 281.513 1711.11 281.83H1727.16V287.815H1717.66C1718.74 288.892 1719.63 290.253 1720.32 291.9C1721.08 293.547 1721.46 295.352 1721.46 297.315C1721.46 299.785 1721.02 302.033 1720.13 304.06C1719.25 306.023 1718.04 307.702 1716.52 309.095C1715 310.425 1713.2 311.47 1711.11 312.23C1709.08 312.99 1706.9 313.37 1704.55 313.37C1703.41 313.37 1702.24 313.243 1701.04 312.99C1699.83 312.673 1698.69 312.262 1697.62 311.755C1696.79 312.452 1696.1 313.243 1695.53 314.13C1694.96 314.953 1694.67 315.998 1694.67 317.265C1694.67 318.722 1695.24 319.925 1696.38 320.875C1697.52 321.825 1699.68 322.3 1702.84 322.3H1711.77C1717.16 322.3 1721.18 323.187 1723.84 324.96C1726.56 326.67 1727.92 329.457 1727.92 333.32C1727.92 335.473 1727.38 337.5 1726.31 339.4C1725.23 341.363 1723.68 343.073 1721.65 344.53C1719.63 345.987 1717.16 347.127 1714.24 347.95C1711.39 348.837 1708.16 349.28 1704.55 349.28ZM1704.55 308.145C1705.88 308.145 1707.12 307.892 1708.26 307.385C1709.46 306.878 1710.51 306.15 1711.39 305.2C1712.34 304.25 1713.07 303.11 1713.58 301.78C1714.08 300.387 1714.34 298.835 1714.34 297.125C1714.34 293.705 1713.39 291.077 1711.49 289.24C1709.59 287.34 1707.28 286.39 1704.55 286.39C1701.83 286.39 1699.52 287.34 1697.62 289.24C1695.72 291.077 1694.77 293.705 1694.77 297.125C1694.77 298.835 1695.02 300.387 1695.53 301.78C1696.03 303.11 1696.73 304.25 1697.62 305.2C1698.57 306.15 1699.61 306.878 1700.75 307.385C1701.96 307.892 1703.22 308.145 1704.55 308.145ZM1705.69 343.865C1707.91 343.865 1709.9 343.58 1711.68 343.01C1713.51 342.503 1715.07 341.807 1716.33 340.92C1717.6 340.097 1718.58 339.115 1719.28 337.975C1719.97 336.835 1720.32 335.663 1720.32 334.46C1720.32 332.307 1719.53 330.818 1717.95 329.995C1716.36 329.172 1714.05 328.76 1711.01 328.76H1703.03C1702.15 328.76 1701.16 328.697 1700.09 328.57C1699.07 328.507 1698.06 328.317 1697.05 328C1695.4 329.203 1694.2 330.47 1693.44 331.8C1692.68 333.13 1692.3 334.46 1692.3 335.79C1692.3 338.26 1693.47 340.223 1695.81 341.68C1698.22 343.137 1701.51 343.865 1705.69 343.865ZM1744.44 328V281.83H1752.23V328H1744.44ZM1748.43 272.33C1746.91 272.33 1745.61 271.855 1744.54 270.905C1743.52 269.955 1743.02 268.752 1743.02 267.295C1743.02 265.775 1743.52 264.572 1744.54 263.685C1745.61 262.735 1746.91 262.26 1748.43 262.26C1749.95 262.26 1751.22 262.735 1752.23 263.685C1753.31 264.572 1753.85 265.775 1753.85 267.295C1753.85 268.752 1753.31 269.955 1752.23 270.905C1751.22 271.855 1749.95 272.33 1748.43 272.33ZM1775.42 328V281.83H1781.88L1782.55 288.48H1782.83C1785.05 286.263 1787.36 284.427 1789.77 282.97C1792.24 281.45 1795.09 280.69 1798.32 280.69C1803.19 280.69 1806.74 282.21 1808.96 285.25C1811.24 288.29 1812.38 292.787 1812.38 298.74V328H1804.59V299.785C1804.59 295.415 1803.89 292.28 1802.5 290.38C1801.1 288.417 1798.89 287.435 1795.85 287.435C1793.44 287.435 1791.32 288.037 1789.48 289.24C1787.65 290.443 1785.56 292.217 1783.21 294.56V328H1775.42ZM1834.97 328V281.83H1841.43L1842.1 288.48H1842.38C1844.6 286.263 1846.91 284.427 1849.32 282.97C1851.79 281.45 1854.64 280.69 1857.87 280.69C1862.75 280.69 1866.29 282.21 1868.51 285.25C1870.79 288.29 1871.93 292.787 1871.93 298.74V328H1864.14V299.785C1864.14 295.415 1863.44 292.28 1862.05 290.38C1860.66 288.417 1858.44 287.435 1855.4 287.435C1852.99 287.435 1850.87 288.037 1849.03 289.24C1847.2 290.443 1845.11 292.217 1842.76 294.56V328H1834.97ZM1913.24 329.14C1910.14 329.14 1907.23 328.602 1904.5 327.525C1901.84 326.385 1899.5 324.802 1897.47 322.775C1895.51 320.685 1893.96 318.152 1892.82 315.175C1891.68 312.198 1891.11 308.81 1891.11 305.01C1891.11 301.21 1891.68 297.822 1892.82 294.845C1894.02 291.805 1895.57 289.24 1897.47 287.15C1899.44 285.06 1901.65 283.477 1904.12 282.4C1906.59 281.26 1909.16 280.69 1911.82 280.69C1914.73 280.69 1917.33 281.197 1919.61 282.21C1921.95 283.223 1923.88 284.68 1925.4 286.58C1926.99 288.48 1928.19 290.76 1929.01 293.42C1929.84 296.08 1930.25 299.057 1930.25 302.35C1930.25 303.173 1930.22 303.997 1930.15 304.82C1930.15 305.58 1930.09 306.245 1929.96 306.815H1898.8C1899.12 311.755 1900.64 315.682 1903.36 318.595C1906.15 321.445 1909.76 322.87 1914.19 322.87C1916.41 322.87 1918.44 322.553 1920.27 321.92C1922.17 321.223 1923.98 320.337 1925.69 319.26L1928.44 324.39C1926.42 325.657 1924.17 326.765 1921.7 327.715C1919.23 328.665 1916.41 329.14 1913.24 329.14ZM1898.71 301.21H1923.41C1923.41 296.523 1922.39 292.977 1920.37 290.57C1918.4 288.1 1915.62 286.865 1912.01 286.865C1910.36 286.865 1908.78 287.182 1907.26 287.815C1905.8 288.448 1904.47 289.398 1903.27 290.665C1902.06 291.868 1901.05 293.357 1900.23 295.13C1899.47 296.903 1898.96 298.93 1898.71 301.21ZM1949.26 328V281.83H1955.72L1956.38 290.19H1956.67C1958.25 287.277 1960.15 284.965 1962.37 283.255C1964.65 281.545 1967.12 280.69 1969.78 280.69C1971.61 280.69 1973.26 281.007 1974.72 281.64L1973.2 288.48C1972.44 288.227 1971.74 288.037 1971.11 287.91C1970.47 287.783 1969.68 287.72 1968.73 287.72C1966.77 287.72 1964.71 288.512 1962.56 290.095C1960.47 291.678 1958.63 294.433 1957.05 298.36V328H1949.26ZM2001.49 329.14C1998.19 329.14 1995.06 328.538 1992.08 327.335C1989.1 326.132 1986.51 324.612 1984.29 322.775L1988.19 317.55C1990.21 319.197 1992.27 320.527 1994.36 321.54C1996.51 322.553 1998.98 323.06 2001.77 323.06C2004.81 323.06 2007.09 322.363 2008.61 320.97C2010.13 319.577 2010.89 317.867 2010.89 315.84C2010.89 314.637 2010.57 313.592 2009.94 312.705C2009.31 311.818 2008.48 311.058 2007.47 310.425C2006.52 309.728 2005.41 309.127 2004.15 308.62C2002.88 308.113 2001.61 307.607 2000.35 307.1C1998.7 306.53 1997.05 305.897 1995.41 305.2C1993.76 304.44 1992.27 303.553 1990.94 302.54C1989.67 301.463 1988.63 300.228 1987.81 298.835C1986.98 297.442 1986.57 295.763 1986.57 293.8C1986.57 291.963 1986.92 290.253 1987.62 288.67C1988.38 287.023 1989.42 285.63 1990.75 284.49C1992.14 283.287 1993.82 282.368 1995.79 281.735C1997.75 281.038 1999.97 280.69 2002.44 280.69C2005.35 280.69 2008.01 281.197 2010.42 282.21C2012.89 283.223 2015.01 284.458 2016.78 285.915L2013.08 290.855C2011.49 289.652 2009.85 288.67 2008.14 287.91C2006.43 287.15 2004.56 286.77 2002.53 286.77C1999.62 286.77 1997.46 287.435 1996.07 288.765C1994.74 290.095 1994.08 291.647 1994.08 293.42C1994.08 294.497 1994.36 295.447 1994.93 296.27C1995.5 297.03 1996.26 297.727 1997.21 298.36C1998.16 298.93 1999.24 299.468 2000.44 299.975C2001.71 300.418 2003.01 300.893 2004.34 301.4C2005.98 302.033 2007.63 302.698 2009.28 303.395C2010.99 304.092 2012.51 304.978 2013.84 306.055C2015.17 307.068 2016.24 308.335 2017.07 309.855C2017.95 311.375 2018.4 313.212 2018.4 315.365C2018.4 317.265 2018.02 319.038 2017.26 320.685C2016.56 322.332 2015.48 323.788 2014.03 325.055C2012.63 326.322 2010.86 327.303 2008.71 328C2006.62 328.76 2004.21 329.14 2001.49 329.14Z" fill="white" fill-opacity="0.5"/>
</svg>
